<svg width="1295" height="905" viewBox="0 0 1295 905" fill="none" xmlns="http://www.w3.org/2000/svg">
<circle cx="1239" cy="901" r="4" transform="rotate(180 1239 901)" fill="#FF8DD4" fill-opacity="0.5"/>
<circle cx="1226" cy="901" r="4" transform="rotate(180 1226 901)" fill="#FF8DD4" fill-opacity="0.5"/>
<circle cx="1213" cy="901" r="4" transform="rotate(180 1213 901)" fill="#FF8DD4" fill-opacity="0.5"/>
<circle cx="1200" cy="901" r="4" transform="rotate(180 1200 901)" fill="#FF8DD4" fill-opacity="0.5"/>
<circle cx="1187" cy="901" r="4" transform="rotate(180 1187 901)" fill="#FF8DD4" fill-opacity="0.5"/>
<circle cx="1174" cy="901" r="4" transform="rotate(180 1174 901)" fill="#FF8DD4" fill-opacity="0.5"/>
<circle cx="1161" cy="901" r="4" transform="rotate(180 1161 901)" fill="#FF8DD4" fill-opacity="0.3"/>
<circle cx="1148" cy="901" r="4" transform="rotate(180 1148 901)" fill="#FF8DD4" fill-opacity="0.1"/>
<circle cx="1239" cy="888" r="4" transform="rotate(180 1239 888)" fill="#FF8DD4" fill-opacity="0.7"/>
<circle cx="1226" cy="888" r="4" transform="rotate(180 1226 888)" fill="#FF8DD4" fill-opacity="0.5"/>
<circle cx="1213" cy="888" r="4" transform="rotate(180 1213 888)" fill="#FF8DD4" fill-opacity="0.5"/>
<circle cx="1200" cy="888" r="4" transform="rotate(180 1200 888)" fill="#FF8DD4" fill-opacity="0.5"/>
<circle cx="1187" cy="888" r="4" transform="rotate(180 1187 888)" fill="#FF8DD4" fill-opacity="0.5"/>
<circle cx="1174" cy="888" r="4" transform="rotate(180 1174 888)" fill="#FF8DD4" fill-opacity="0.5"/>
<circle cx="1161" cy="888" r="4" transform="rotate(180 1161 888)" fill="#FF8DD4" fill-opacity="0.5"/>
<circle cx="1148" cy="888" r="4" transform="rotate(180 1148 888)" fill="#FF8DD4" fill-opacity="0.3"/>
<circle cx="1135" cy="888" r="4" transform="rotate(180 1135 888)" fill="#FF8DD4" fill-opacity="0.3"/>
<circle cx="1122" cy="888" r="4" transform="rotate(180 1122 888)" fill="#FF8DD4" fill-opacity="0.1"/>
<circle cx="1291" cy="875" r="4" transform="rotate(180 1291 875)" fill="#FF8DD4" fill-opacity="0.3"/>
<circle cx="1278" cy="875" r="4" transform="rotate(180 1278 875)" fill="#FF8DD4" fill-opacity="0.8"/>
<circle cx="1265" cy="875" r="4" transform="rotate(180 1265 875)" fill="#FF8DD4"/>
<circle cx="1252" cy="875" r="4" transform="rotate(180 1252 875)" fill="#FF8DD4"/>
<circle cx="1239" cy="875" r="4" transform="rotate(180 1239 875)" fill="#FF8DD4" fill-opacity="0.7"/>
<circle cx="1226" cy="875" r="4" transform="rotate(180 1226 875)" fill="#FF8DD4" fill-opacity="0.5"/>
<circle cx="1213" cy="875" r="4" transform="rotate(180 1213 875)" fill="#FF8DD4" fill-opacity="0.5"/>
<circle cx="1200" cy="875" r="4" transform="rotate(180 1200 875)" fill="#FF8DD4" fill-opacity="0.5"/>
<circle cx="1187" cy="875" r="4" transform="rotate(180 1187 875)" fill="#FF8DD4" fill-opacity="0.5"/>
<circle cx="1174" cy="875" r="4" transform="rotate(180 1174 875)" fill="#FF8DD4" fill-opacity="0.5"/>
<circle cx="1161" cy="875" r="4" transform="rotate(180 1161 875)" fill="#FF8DD4" fill-opacity="0.5"/>
<circle cx="1148" cy="875" r="4" transform="rotate(180 1148 875)" fill="#FF8DD4" fill-opacity="0.5"/>
<circle cx="1135" cy="875" r="4" transform="rotate(180 1135 875)" fill="#FF8DD4" fill-opacity="0.3"/>
<circle cx="1122" cy="875" r="4" transform="rotate(180 1122 875)" fill="#FF8DD4" fill-opacity="0.3"/>
<circle cx="1109" cy="875" r="4" transform="rotate(180 1109 875)" fill="#FF8DD4" fill-opacity="0.1"/>
<circle cx="1291" cy="862" r="4" transform="rotate(180 1291 862)" fill="#FF8DD4" fill-opacity="0.3"/>
<circle cx="1278" cy="862" r="4" transform="rotate(180 1278 862)" fill="#FF8DD4" fill-opacity="0.7"/>
<circle cx="1265" cy="862" r="4" transform="rotate(180 1265 862)" fill="#FF8DD4"/>
<circle cx="1252" cy="862" r="4" transform="rotate(180 1252 862)" fill="#FF8DD4"/>
<circle cx="1239" cy="862" r="4" transform="rotate(180 1239 862)" fill="#FF8DD4" fill-opacity="0.7"/>
<circle cx="1226" cy="862" r="4" transform="rotate(180 1226 862)" fill="#FF8DD4" fill-opacity="0.7"/>
<circle cx="1213" cy="862" r="4" transform="rotate(180 1213 862)" fill="#FF8DD4" fill-opacity="0.5"/>
<circle cx="1200" cy="862" r="4" transform="rotate(180 1200 862)" fill="#FF8DD4" fill-opacity="0.5"/>
<circle cx="1187" cy="862" r="4" transform="rotate(180 1187 862)" fill="#FF8DD4" fill-opacity="0.5"/>
<circle cx="1174" cy="862" r="4" transform="rotate(180 1174 862)" fill="#FF8DD4" fill-opacity="0.5"/>
<circle cx="1161" cy="862" r="4" transform="rotate(180 1161 862)" fill="#FF8DD4" fill-opacity="0.5"/>
<circle cx="1148" cy="862" r="4" transform="rotate(180 1148 862)" fill="#FF8DD4" fill-opacity="0.5"/>
<circle cx="1135" cy="862" r="4" transform="rotate(180 1135 862)" fill="#FF8DD4" fill-opacity="0.5"/>
<circle cx="1122" cy="862" r="4" transform="rotate(180 1122 862)" fill="#FF8DD4" fill-opacity="0.3"/>
<circle cx="1109" cy="862" r="4" transform="rotate(180 1109 862)" fill="#FF8DD4" fill-opacity="0.3"/>
<circle cx="1291" cy="849" r="4" transform="rotate(180 1291 849)" fill="#FF8DD4" fill-opacity="0.5"/>
<circle cx="1278" cy="849" r="4" transform="rotate(180 1278 849)" fill="#FF8DD4" fill-opacity="0.7"/>
<circle cx="1265" cy="849" r="4" transform="rotate(180 1265 849)" fill="#FF8DD4" fill-opacity="0.7"/>
<circle cx="1252" cy="849" r="4" transform="rotate(180 1252 849)" fill="#FF8DD4" fill-opacity="0.7"/>
<circle cx="1239" cy="849" r="4" transform="rotate(180 1239 849)" fill="#FF8DD4" fill-opacity="0.7"/>
<circle cx="1226" cy="849" r="4" transform="rotate(180 1226 849)" fill="#FF8DD4" fill-opacity="0.7"/>
<circle cx="1213" cy="849" r="4" transform="rotate(180 1213 849)" fill="#FF8DD4" fill-opacity="0.5"/>
<circle cx="1200" cy="849" r="4" transform="rotate(180 1200 849)" fill="#FF8DD4" fill-opacity="0.5"/>
<circle cx="1187" cy="849" r="4" transform="rotate(180 1187 849)" fill="#FF8DD4" fill-opacity="0.5"/>
<circle cx="1174" cy="849" r="4" transform="rotate(180 1174 849)" fill="#FF8DD4" fill-opacity="0.5"/>
<circle cx="1161" cy="849" r="4" transform="rotate(180 1161 849)" fill="#FF8DD4" fill-opacity="0.5"/>
<circle cx="1148" cy="849" r="4" transform="rotate(180 1148 849)" fill="#FF8DD4" fill-opacity="0.5"/>
<circle cx="1135" cy="849" r="4" transform="rotate(180 1135 849)" fill="#FF8DD4" fill-opacity="0.5"/>
<circle cx="1122" cy="849" r="4" transform="rotate(180 1122 849)" fill="#FF8DD4" fill-opacity="0.5"/>
<circle cx="1109" cy="849" r="4" transform="rotate(180 1109 849)" fill="#FF8DD4" fill-opacity="0.3"/>
<circle cx="1096" cy="849" r="4" transform="rotate(180 1096 849)" fill="#FF8DD4" fill-opacity="0.1"/>
<circle cx="1291" cy="836" r="4" transform="rotate(180 1291 836)" fill="#FF8DD4" fill-opacity="0.5"/>
<circle cx="1278" cy="836" r="4" transform="rotate(180 1278 836)" fill="#FF8DD4" fill-opacity="0.5"/>
<circle cx="1265" cy="836" r="4" transform="rotate(180 1265 836)" fill="#FF8DD4" fill-opacity="0.5"/>
<circle cx="1252" cy="836" r="4" transform="rotate(180 1252 836)" fill="#FF8DD4" fill-opacity="0.7"/>
<circle cx="1239" cy="836" r="4" transform="rotate(180 1239 836)" fill="#FF8DD4" fill-opacity="0.7"/>
<circle cx="1226" cy="836" r="4" transform="rotate(180 1226 836)" fill="#FF8DD4" fill-opacity="0.7"/>
<circle cx="1213" cy="836" r="4" transform="rotate(180 1213 836)" fill="#FF8DD4" fill-opacity="0.7"/>
<circle cx="1200" cy="836" r="4" transform="rotate(180 1200 836)" fill="#FF8DD4" fill-opacity="0.5"/>
<circle cx="1187" cy="836" r="4" transform="rotate(180 1187 836)" fill="#FF8DD4" fill-opacity="0.5"/>
<circle cx="1174" cy="836" r="4" transform="rotate(180 1174 836)" fill="#FF8DD4" fill-opacity="0.5"/>
<circle cx="1161" cy="836" r="4" transform="rotate(180 1161 836)" fill="#FF8DD4" fill-opacity="0.5"/>
<circle cx="1148" cy="836" r="4" transform="rotate(180 1148 836)" fill="#FF8DD4" fill-opacity="0.5"/>
<circle cx="1135" cy="836" r="4" transform="rotate(180 1135 836)" fill="#FF8DD4" fill-opacity="0.5"/>
<circle cx="1122" cy="836" r="4" transform="rotate(180 1122 836)" fill="#FF8DD4" fill-opacity="0.5"/>
<circle cx="1109" cy="836" r="4" transform="rotate(180 1109 836)" fill="#FF8DD4" fill-opacity="0.3"/>
<circle cx="1096" cy="836" r="4" transform="rotate(180 1096 836)" fill="#FF8DD4" fill-opacity="0.1"/>
<circle cx="1291" cy="823" r="4" transform="rotate(180 1291 823)" fill="#FF8DD4" fill-opacity="0.5"/>
<circle cx="1278" cy="823" r="4" transform="rotate(180 1278 823)" fill="#FF8DD4" fill-opacity="0.5"/>
<circle cx="1265" cy="823" r="4" transform="rotate(180 1265 823)" fill="#FF8DD4" fill-opacity="0.5"/>
<circle cx="1252" cy="823" r="4" transform="rotate(180 1252 823)" fill="#FF8DD4" fill-opacity="0.5"/>
<circle cx="1239" cy="823" r="4" transform="rotate(180 1239 823)" fill="#FF8DD4" fill-opacity="0.5"/>
<circle cx="1226" cy="823" r="4" transform="rotate(180 1226 823)" fill="#FF8DD4" fill-opacity="0.7"/>
<circle cx="1213" cy="823" r="4" transform="rotate(180 1213 823)" fill="#FF8DD4" fill-opacity="0.7"/>
<circle cx="1200" cy="823" r="4" transform="rotate(180 1200 823)" fill="#FF8DD4" fill-opacity="0.5"/>
<circle cx="1187" cy="823" r="4" transform="rotate(180 1187 823)" fill="#FF8DD4" fill-opacity="0.5"/>
<circle cx="1174" cy="823" r="4" transform="rotate(180 1174 823)" fill="#FF8DD4" fill-opacity="0.5"/>
<circle cx="1161" cy="823" r="4" transform="rotate(180 1161 823)" fill="#FF8DD4" fill-opacity="0.5"/>
<circle cx="1148" cy="823" r="4" transform="rotate(180 1148 823)" fill="#FF8DD4" fill-opacity="0.5"/>
<circle cx="1135" cy="823" r="4" transform="rotate(180 1135 823)" fill="#FF8DD4" fill-opacity="0.5"/>
<circle cx="1122" cy="823" r="4" transform="rotate(180 1122 823)" fill="#FF8DD4" fill-opacity="0.5"/>
<circle cx="1109" cy="823" r="4" transform="rotate(180 1109 823)" fill="#FF8DD4" fill-opacity="0.3"/>
<circle cx="1096" cy="823" r="4" transform="rotate(180 1096 823)" fill="#FF8DD4" fill-opacity="0.1"/>
<circle cx="1291" cy="810" r="4" transform="rotate(180 1291 810)" fill="#FF8DD4" fill-opacity="0.5"/>
<circle cx="1278" cy="810" r="4" transform="rotate(180 1278 810)" fill="#FF8DD4" fill-opacity="0.5"/>
<circle cx="1265" cy="810" r="4" transform="rotate(180 1265 810)" fill="#FF8DD4" fill-opacity="0.5"/>
<circle cx="1252" cy="810" r="4" transform="rotate(180 1252 810)" fill="#FF8DD4" fill-opacity="0.5"/>
<circle cx="1239" cy="810" r="4" transform="rotate(180 1239 810)" fill="#FF8DD4" fill-opacity="0.5"/>
<circle cx="1226" cy="810" r="4" transform="rotate(180 1226 810)" fill="#FF8DD4" fill-opacity="0.5"/>
<circle cx="1213" cy="810" r="4" transform="rotate(180 1213 810)" fill="#FF8DD4" fill-opacity="0.5"/>
<circle cx="1200" cy="810" r="4" transform="rotate(180 1200 810)" fill="#FF8DD4" fill-opacity="0.7"/>
<circle cx="1187" cy="810" r="4" transform="rotate(180 1187 810)" fill="#FF8DD4" fill-opacity="0.5"/>
<circle cx="1174" cy="810" r="4" transform="rotate(180 1174 810)" fill="#FF8DD4" fill-opacity="0.5"/>
<circle cx="1161" cy="810" r="4" transform="rotate(180 1161 810)" fill="#FF8DD4" fill-opacity="0.5"/>
<circle cx="1148" cy="810" r="4" transform="rotate(180 1148 810)" fill="#FF8DD4" fill-opacity="0.5"/>
<circle cx="1135" cy="810" r="4" transform="rotate(180 1135 810)" fill="#FF8DD4" fill-opacity="0.5"/>
<circle cx="1122" cy="810" r="4" transform="rotate(180 1122 810)" fill="#FF8DD4" fill-opacity="0.5"/>
<circle cx="1109" cy="810" r="4" transform="rotate(180 1109 810)" fill="#FF8DD4" fill-opacity="0.3"/>
<circle cx="1096" cy="810" r="4" transform="rotate(180 1096 810)" fill="#FF8DD4" fill-opacity="0.1"/>
<circle cx="1291" cy="797" r="4" transform="rotate(180 1291 797)" fill="#FF8DD4" fill-opacity="0.5"/>
<circle cx="1278" cy="797" r="4" transform="rotate(180 1278 797)" fill="#FF8DD4" fill-opacity="0.5"/>
<circle cx="1265" cy="797" r="4" transform="rotate(180 1265 797)" fill="#FF8DD4" fill-opacity="0.5"/>
<circle cx="1252" cy="797" r="4" transform="rotate(180 1252 797)" fill="#FF8DD4" fill-opacity="0.5"/>
<circle cx="1239" cy="797" r="4" transform="rotate(180 1239 797)" fill="#FF8DD4" fill-opacity="0.5"/>
<circle cx="1226" cy="797" r="4" transform="rotate(180 1226 797)" fill="#FF8DD4" fill-opacity="0.5"/>
<circle cx="1213" cy="797" r="4" transform="rotate(180 1213 797)" fill="#FF8DD4" fill-opacity="0.5"/>
<circle cx="1200" cy="797" r="4" transform="rotate(180 1200 797)" fill="#FF8DD4" fill-opacity="0.5"/>
<circle cx="1187" cy="797" r="4" transform="rotate(180 1187 797)" fill="#FF8DD4" fill-opacity="0.5"/>
<circle cx="1174" cy="797" r="4" transform="rotate(180 1174 797)" fill="#FF8DD4" fill-opacity="0.5"/>
<circle cx="1161" cy="797" r="4" transform="rotate(180 1161 797)" fill="#FF8DD4" fill-opacity="0.5"/>
<circle cx="1148" cy="797" r="4" transform="rotate(180 1148 797)" fill="#FF8DD4" fill-opacity="0.5"/>
<circle cx="1135" cy="797" r="4" transform="rotate(180 1135 797)" fill="#FF8DD4" fill-opacity="0.5"/>
<circle cx="1122" cy="797" r="4" transform="rotate(180 1122 797)" fill="#FF8DD4" fill-opacity="0.5"/>
<circle cx="1109" cy="797" r="4" transform="rotate(180 1109 797)" fill="#FF8DD4" fill-opacity="0.3"/>
<circle cx="1096" cy="797" r="4" transform="rotate(180 1096 797)" fill="#FF8DD4" fill-opacity="0.1"/>
<circle cx="1291" cy="784" r="4" transform="rotate(180 1291 784)" fill="#FF8DD4" fill-opacity="0.5"/>
<circle cx="1278" cy="784" r="4" transform="rotate(180 1278 784)" fill="#FF8DD4" fill-opacity="0.5"/>
<circle cx="1265" cy="784" r="4" transform="rotate(180 1265 784)" fill="#FF8DD4" fill-opacity="0.5"/>
<circle cx="1252" cy="784" r="4" transform="rotate(180 1252 784)" fill="#FF8DD4" fill-opacity="0.5"/>
<circle cx="1239" cy="784" r="4" transform="rotate(180 1239 784)" fill="#FF8DD4" fill-opacity="0.5"/>
<circle cx="1226" cy="784" r="4" transform="rotate(180 1226 784)" fill="#FF8DD4" fill-opacity="0.5"/>
<circle cx="1213" cy="784" r="4" transform="rotate(180 1213 784)" fill="#FF8DD4" fill-opacity="0.5"/>
<circle cx="1200" cy="784" r="4" transform="rotate(180 1200 784)" fill="#FF8DD4" fill-opacity="0.5"/>
<circle cx="1187" cy="784" r="4" transform="rotate(180 1187 784)" fill="#FF8DD4" fill-opacity="0.5"/>
<circle cx="1174" cy="784" r="4" transform="rotate(180 1174 784)" fill="#FF8DD4" fill-opacity="0.5"/>
<circle cx="1161" cy="784" r="4" transform="rotate(180 1161 784)" fill="#FF8DD4" fill-opacity="0.5"/>
<circle cx="1148" cy="784" r="4" transform="rotate(180 1148 784)" fill="#FF8DD4" fill-opacity="0.5"/>
<circle cx="1135" cy="784" r="4" transform="rotate(180 1135 784)" fill="#FF8DD4" fill-opacity="0.5"/>
<circle cx="1122" cy="784" r="4" transform="rotate(180 1122 784)" fill="#FF8DD4" fill-opacity="0.5"/>
<circle cx="1109" cy="784" r="4" transform="rotate(180 1109 784)" fill="#FF8DD4" fill-opacity="0.3"/>
<circle cx="1096" cy="784" r="4" transform="rotate(180 1096 784)" fill="#FF8DD4" fill-opacity="0.1"/>
<circle cx="1291" cy="771" r="4" transform="rotate(180 1291 771)" fill="#FF8DD4" fill-opacity="0.3"/>
<circle cx="1278" cy="771" r="4" transform="rotate(180 1278 771)" fill="#FF8DD4" fill-opacity="0.5"/>
<circle cx="1265" cy="771" r="4" transform="rotate(180 1265 771)" fill="#FF8DD4" fill-opacity="0.5"/>
<circle cx="1252" cy="771" r="4" transform="rotate(180 1252 771)" fill="#FF8DD4" fill-opacity="0.5"/>
<circle cx="1239" cy="771" r="4" transform="rotate(180 1239 771)" fill="#FF8DD4" fill-opacity="0.5"/>
<circle cx="1226" cy="771" r="4" transform="rotate(180 1226 771)" fill="#FF8DD4" fill-opacity="0.5"/>
<circle cx="1213" cy="771" r="4" transform="rotate(180 1213 771)" fill="#FF8DD4" fill-opacity="0.5"/>
<circle cx="1200" cy="771" r="4" transform="rotate(180 1200 771)" fill="#FF8DD4" fill-opacity="0.5"/>
<circle cx="1187" cy="771" r="4" transform="rotate(180 1187 771)" fill="#FF8DD4" fill-opacity="0.5"/>
<circle cx="1174" cy="771" r="4" transform="rotate(180 1174 771)" fill="#FF8DD4" fill-opacity="0.5"/>
<circle cx="1161" cy="771" r="4" transform="rotate(180 1161 771)" fill="#FF8DD4" fill-opacity="0.5"/>
<circle cx="1148" cy="771" r="4" transform="rotate(180 1148 771)" fill="#FF8DD4" fill-opacity="0.5"/>
<circle cx="1135" cy="771" r="4" transform="rotate(180 1135 771)" fill="#FF8DD4" fill-opacity="0.5"/>
<circle cx="1122" cy="771" r="4" transform="rotate(180 1122 771)" fill="#FF8DD4" fill-opacity="0.5"/>
<circle cx="1109" cy="771" r="4" transform="rotate(180 1109 771)" fill="#FF8DD4" fill-opacity="0.3"/>
<circle cx="1096" cy="771" r="4" transform="rotate(180 1096 771)" fill="#FF8DD4" fill-opacity="0.1"/>
<circle cx="1291" cy="758" r="4" transform="rotate(180 1291 758)" fill="#FF8DD4" fill-opacity="0.1"/>
<circle cx="1278" cy="758" r="4" transform="rotate(180 1278 758)" fill="#FF8DD4" fill-opacity="0.3"/>
<circle cx="1265" cy="758" r="4" transform="rotate(180 1265 758)" fill="#FF8DD4" fill-opacity="0.5"/>
<circle cx="1252" cy="758" r="4" transform="rotate(180 1252 758)" fill="#FF8DD4" fill-opacity="0.5"/>
<circle cx="1239" cy="758" r="4" transform="rotate(180 1239 758)" fill="#FF8DD4" fill-opacity="0.5"/>
<circle cx="1226" cy="758" r="4" transform="rotate(180 1226 758)" fill="#FF8DD4" fill-opacity="0.5"/>
<circle cx="1213" cy="758" r="4" transform="rotate(180 1213 758)" fill="#FF8DD4" fill-opacity="0.5"/>
<circle cx="1200" cy="758" r="4" transform="rotate(180 1200 758)" fill="#FF8DD4" fill-opacity="0.5"/>
<circle cx="1187" cy="758" r="4" transform="rotate(180 1187 758)" fill="#FF8DD4" fill-opacity="0.5"/>
<circle cx="1174" cy="758" r="4" transform="rotate(180 1174 758)" fill="#FF8DD4" fill-opacity="0.5"/>
<circle cx="1161" cy="758" r="4" transform="rotate(180 1161 758)" fill="#FF8DD4" fill-opacity="0.5"/>
<circle cx="1148" cy="758" r="4" transform="rotate(180 1148 758)" fill="#FF8DD4" fill-opacity="0.5"/>
<circle cx="1135" cy="758" r="4" transform="rotate(180 1135 758)" fill="#FF8DD4" fill-opacity="0.5"/>
<circle cx="1122" cy="758" r="4" transform="rotate(180 1122 758)" fill="#FF8DD4" fill-opacity="0.5"/>
<circle cx="1109" cy="758" r="4" transform="rotate(180 1109 758)" fill="#FF8DD4" fill-opacity="0.3"/>
<circle cx="1096" cy="758" r="4" transform="rotate(180 1096 758)" fill="#FF8DD4" fill-opacity="0.1"/>
<circle cx="1278" cy="745" r="4" transform="rotate(180 1278 745)" fill="#FF8DD4" fill-opacity="0.3"/>
<circle cx="1265" cy="745" r="4" transform="rotate(180 1265 745)" fill="#FF8DD4" fill-opacity="0.3"/>
<circle cx="1252" cy="745" r="4" transform="rotate(180 1252 745)" fill="#FF8DD4" fill-opacity="0.5"/>
<circle cx="1239" cy="745" r="4" transform="rotate(180 1239 745)" fill="#FF8DD4" fill-opacity="0.5"/>
<circle cx="1226" cy="745" r="4" transform="rotate(180 1226 745)" fill="#FF8DD4" fill-opacity="0.5"/>
<circle cx="1213" cy="745" r="4" transform="rotate(180 1213 745)" fill="#FF8DD4" fill-opacity="0.5"/>
<circle cx="1200" cy="745" r="4" transform="rotate(180 1200 745)" fill="#FF8DD4" fill-opacity="0.5"/>
<circle cx="1187" cy="745" r="4" transform="rotate(180 1187 745)" fill="#FF8DD4" fill-opacity="0.5"/>
<circle cx="1174" cy="745" r="4" transform="rotate(180 1174 745)" fill="#FF8DD4" fill-opacity="0.5"/>
<circle cx="1161" cy="745" r="4" transform="rotate(180 1161 745)" fill="#FF8DD4" fill-opacity="0.5"/>
<circle cx="1148" cy="745" r="4" transform="rotate(180 1148 745)" fill="#FF8DD4" fill-opacity="0.5"/>
<circle cx="1135" cy="745" r="4" transform="rotate(180 1135 745)" fill="#FF8DD4" fill-opacity="0.5"/>
<circle cx="1122" cy="745" r="4" transform="rotate(180 1122 745)" fill="#FF8DD4" fill-opacity="0.3"/>
<circle cx="1109" cy="745" r="4" transform="rotate(180 1109 745)" fill="#FF8DD4" fill-opacity="0.3"/>
<circle cx="1096" cy="745" r="4" transform="rotate(180 1096 745)" fill="#FF8DD4" fill-opacity="0.1"/>
<circle cx="1278" cy="732" r="4" transform="rotate(180 1278 732)" fill="#FF8DD4" fill-opacity="0.1"/>
<circle cx="1265" cy="732" r="4" transform="rotate(180 1265 732)" fill="#FF8DD4" fill-opacity="0.3"/>
<circle cx="1252" cy="732" r="4" transform="rotate(180 1252 732)" fill="#FF8DD4" fill-opacity="0.3"/>
<circle cx="1239" cy="732" r="4" transform="rotate(180 1239 732)" fill="#FF8DD4" fill-opacity="0.5"/>
<circle cx="1226" cy="732" r="4" transform="rotate(180 1226 732)" fill="#FF8DD4" fill-opacity="0.5"/>
<circle cx="1213" cy="732" r="4" transform="rotate(180 1213 732)" fill="#FF8DD4" fill-opacity="0.5"/>
<circle cx="1200" cy="732" r="4" transform="rotate(180 1200 732)" fill="#FF8DD4" fill-opacity="0.5"/>
<circle cx="1187" cy="732" r="4" transform="rotate(180 1187 732)" fill="#FF8DD4" fill-opacity="0.5"/>
<circle cx="1174" cy="732" r="4" transform="rotate(180 1174 732)" fill="#FF8DD4" fill-opacity="0.5"/>
<circle cx="1161" cy="732" r="4" transform="rotate(180 1161 732)" fill="#FF8DD4" fill-opacity="0.5"/>
<circle cx="1148" cy="732" r="4" transform="rotate(180 1148 732)" fill="#FF8DD4" fill-opacity="0.5"/>
<circle cx="1135" cy="732" r="4" transform="rotate(180 1135 732)" fill="#FF8DD4" fill-opacity="0.3"/>
<circle cx="1122" cy="732" r="4" transform="rotate(180 1122 732)" fill="#FF8DD4" fill-opacity="0.3"/>
<circle cx="1109" cy="732" r="4" transform="rotate(180 1109 732)" fill="#FF8DD4" fill-opacity="0.1"/>
<circle cx="1096" cy="732" r="4" transform="rotate(180 1096 732)" fill="#FF8DD4" fill-opacity="0.1"/>
<circle cx="1265" cy="719" r="4" transform="rotate(180 1265 719)" fill="#FF8DD4" fill-opacity="0.1"/>
<circle cx="1252" cy="719" r="4" transform="rotate(180 1252 719)" fill="#FF8DD4" fill-opacity="0.3"/>
<circle cx="1239" cy="719" r="4" transform="rotate(180 1239 719)" fill="#FF8DD4" fill-opacity="0.3"/>
<circle cx="1226" cy="719" r="4" transform="rotate(180 1226 719)" fill="#FF8DD4" fill-opacity="0.3"/>
<circle cx="1213" cy="719" r="4" transform="rotate(180 1213 719)" fill="#FF8DD4" fill-opacity="0.3"/>
<circle cx="1200" cy="719" r="4" transform="rotate(180 1200 719)" fill="#FF8DD4" fill-opacity="0.3"/>
<circle cx="1187" cy="719" r="4" transform="rotate(180 1187 719)" fill="#FF8DD4" fill-opacity="0.3"/>
<circle cx="1174" cy="719" r="4" transform="rotate(180 1174 719)" fill="#FF8DD4" fill-opacity="0.3"/>
<circle cx="1161" cy="719" r="4" transform="rotate(180 1161 719)" fill="#FF8DD4" fill-opacity="0.3"/>
<circle cx="1148" cy="719" r="4" transform="rotate(180 1148 719)" fill="#FF8DD4" fill-opacity="0.3"/>
<circle cx="1135" cy="719" r="4" transform="rotate(180 1135 719)" fill="#FF8DD4" fill-opacity="0.3"/>
<circle cx="1122" cy="719" r="4" transform="rotate(180 1122 719)" fill="#FF8DD4" fill-opacity="0.1"/>
<circle cx="1109" cy="719" r="4" transform="rotate(180 1109 719)" fill="#FF8DD4" fill-opacity="0.1"/>
<circle cx="1096" cy="719" r="4" transform="rotate(180 1096 719)" fill="#FF8DD4" fill-opacity="0.1"/>
<circle cx="1239" cy="706" r="4" transform="rotate(180 1239 706)" fill="#FF8DD4" fill-opacity="0.1"/>
<circle cx="1226" cy="706" r="4" transform="rotate(180 1226 706)" fill="#FF8DD4" fill-opacity="0.1"/>
<circle cx="1213" cy="706" r="4" transform="rotate(180 1213 706)" fill="#FF8DD4" fill-opacity="0.1"/>
<circle cx="1200" cy="706" r="4" transform="rotate(180 1200 706)" fill="#FF8DD4" fill-opacity="0.1"/>
<circle cx="1187" cy="706" r="4" transform="rotate(180 1187 706)" fill="#FF8DD4" fill-opacity="0.1"/>
<circle cx="1174" cy="706" r="4" transform="rotate(180 1174 706)" fill="#FF8DD4" fill-opacity="0.1"/>
<circle cx="1161" cy="706" r="4" transform="rotate(180 1161 706)" fill="#FF8DD4" fill-opacity="0.1"/>
<circle cx="1148" cy="706" r="4" transform="rotate(180 1148 706)" fill="#FF8DD4" fill-opacity="0.1"/>
<circle cx="1135" cy="706" r="4" transform="rotate(180 1135 706)" fill="#FF8DD4" fill-opacity="0.1"/>
<circle cx="1122" cy="706" r="4" transform="rotate(180 1122 706)" fill="#FF8DD4" fill-opacity="0.1"/>
<circle cx="1109" cy="706" r="4" transform="rotate(180 1109 706)" fill="#FF8DD4" fill-opacity="0.1"/>
<circle cx="1096" cy="706" r="4" transform="rotate(180 1096 706)" fill="#FF8DD4" fill-opacity="0.1"/>
<circle cx="1265" cy="901" r="4" transform="rotate(180 1265 901)" fill="#FF8DD4" fill-opacity="0.3"/>
<circle cx="1252" cy="901" r="4" transform="rotate(180 1252 901)" fill="#FF8DD4" fill-opacity="0.3"/>
<circle cx="1278" cy="888" r="4" transform="rotate(180 1278 888)" fill="#FF8DD4" fill-opacity="0.5"/>
<circle cx="1265" cy="888" r="4" transform="rotate(180 1265 888)" fill="#FF8DD4" fill-opacity="0.8"/>
<circle cx="1252" cy="888" r="4" transform="rotate(180 1252 888)" fill="#FF8DD4" fill-opacity="0.7"/>
</svg>
