<svg width="55" height="55" viewBox="0 0 55 55" fill="none" xmlns="http://www.w3.org/2000/svg">
<circle cx="27.5" cy="27.5" r="27.5" fill="#F5F5F5"/>
<path d="M36.6094 13.0264L36.6094 36.4801" stroke="#AC2A9E" stroke-width="1.01316" stroke-linecap="round"/>
<rect x="35.0977" y="18.2773" width="3.02629" height="12.602" rx="0.756573" fill="#AC2A9E"/>
<path d="M40.7705 15.6743L40.7705 33.4538" stroke="#AC2A9E" stroke-width="1.01316" stroke-linecap="round"/>
<path d="M44.9336 18.3223L44.9336 28.536" stroke="#AC2A9E" stroke-width="1.01316" stroke-linecap="round"/>
<path d="M28.2871 15.6743L28.098 46.3155" stroke="#AC2A9E" stroke-width="1.01316" stroke-linecap="round"/>
<rect x="26.7754" y="20.9707" width="3.02629" height="19.6709" rx="0.756573" fill="#AC2A9E"/>
<path d="M32.4502 13.0264L32.4502 42.1544" stroke="#AC2A9E" stroke-width="1.01316" stroke-linecap="round"/>
<rect x="30.9365" y="17.1875" width="3.02629" height="20.0492" rx="0.756573" fill="#AC2A9E"/>
<path d="M19.9648 13.0264L19.9648 36.4801" stroke="#AC2A9E" stroke-width="1.01316" stroke-linecap="round"/>
<rect width="3.02629" height="12.602" rx="0.756573" transform="matrix(-1 0 0 1 21.4785 17.9268)" fill="#AC2A9E"/>
<path d="M15.8037 15.6743L15.8037 33.4538" stroke="#AC2A9E" stroke-width="1.01316" stroke-linecap="round"/>
<path d="M11.6426 18.3223L11.6426 28.536" stroke="#AC2A9E" stroke-width="1.01316" stroke-linecap="round"/>
<path d="M24.1279 13.0264L24.1279 42.1544" stroke="#AC2A9E" stroke-width="1.01316" stroke-linecap="round"/>
<rect width="3.02629" height="20.0492" rx="0.756573" transform="matrix(-1 0 0 1 25.6416 17.1875)" fill="#AC2A9E"/>
</svg>
