<svg width="742" height="321" viewBox="0 0 742 321" fill="none" xmlns="http://www.w3.org/2000/svg">
<g clip-path="url(#clip0_152_45)">
<rect width="742" height="321" rx="40" fill="url(#paint0_linear_152_45)" fill-opacity="0.85"/>
<g opacity="0.3">
<circle cx="30" cy="75" r="4" fill="#E792F6" fill-opacity="0.1"/>
<circle cx="43" cy="75" r="4" fill="#E792F6" fill-opacity="0.1"/>
<circle cx="56" cy="75" r="4" fill="#E792F6" fill-opacity="0.1"/>
<circle cx="69" cy="75" r="4" fill="#E792F6" fill-opacity="0.1"/>
<circle cx="82" cy="75" r="4" fill="#E792F6" fill-opacity="0.1"/>
<circle cx="95" cy="75" r="4" fill="#E792F6" fill-opacity="0.1"/>
<circle cx="108" cy="75" r="4" fill="#E792F6" fill-opacity="0.1"/>
<circle cx="121" cy="75" r="4" fill="#E792F6" fill-opacity="0.1"/>
<circle cx="4" cy="88" r="4" fill="#E792F6" fill-opacity="0.1"/>
<circle cx="17" cy="88" r="4" fill="#E792F6" fill-opacity="0.3"/>
<circle cx="30" cy="88" r="4" fill="#E792F6" fill-opacity="0.3"/>
<circle cx="43" cy="88" r="4" fill="#E792F6" fill-opacity="0.3"/>
<circle cx="56" cy="88" r="4" fill="#E792F6" fill-opacity="0.3"/>
<circle cx="69" cy="88" r="4" fill="#E792F6" fill-opacity="0.3"/>
<circle cx="82" cy="88" r="4" fill="#E792F6" fill-opacity="0.3"/>
<circle cx="95" cy="88" r="4" fill="#E792F6" fill-opacity="0.3"/>
<circle cx="108" cy="88" r="4" fill="#E792F6" fill-opacity="0.3"/>
<circle cx="121" cy="88" r="4" fill="#E792F6" fill-opacity="0.3"/>
<circle cx="134" cy="88" r="4" fill="#E792F6" fill-opacity="0.3"/>
<circle cx="147" cy="88" r="4" fill="#E792F6" fill-opacity="0.1"/>
<circle cx="4" cy="101" r="4" fill="#E792F6" fill-opacity="0.3"/>
<circle cx="17" cy="101" r="4" fill="#E792F6" fill-opacity="0.3"/>
<circle cx="30" cy="101" r="4" fill="#E792F6" fill-opacity="0.5"/>
<circle cx="43" cy="101" r="4" fill="#E792F6" fill-opacity="0.5"/>
<circle cx="56" cy="101" r="4" fill="#E792F6" fill-opacity="0.5"/>
<circle cx="69" cy="101" r="4" fill="#E792F6" fill-opacity="0.7"/>
<circle cx="82" cy="101" r="4" fill="#E792F6" fill-opacity="0.7"/>
<circle cx="95" cy="101" r="4" fill="#E792F6" fill-opacity="0.5"/>
<circle cx="108" cy="101" r="4" fill="#E792F6" fill-opacity="0.5"/>
<circle cx="121" cy="101" r="4" fill="#E792F6" fill-opacity="0.5"/>
<circle cx="134" cy="101" r="4" fill="#E792F6" fill-opacity="0.3"/>
<circle cx="147" cy="101" r="4" fill="#E792F6" fill-opacity="0.3"/>
<circle cx="160" cy="101" r="4" fill="#E792F6" fill-opacity="0.1"/>
<circle cx="4" cy="114" r="4" fill="#E792F6" fill-opacity="0.3"/>
<circle cx="17" cy="114" r="4" fill="#E792F6" fill-opacity="0.5"/>
<circle cx="30" cy="114" r="4" fill="#E792F6" fill-opacity="0.5"/>
<circle cx="43" cy="114" r="4" fill="#E792F6" fill-opacity="0.5"/>
<circle cx="56" cy="114" r="4" fill="#E792F6" fill-opacity="0.5"/>
<circle cx="69" cy="114" r="4" fill="#E792F6" fill-opacity="0.7"/>
<circle cx="82" cy="114" r="4" fill="#E792F6" fill-opacity="0.7"/>
<circle cx="95" cy="114" r="4" fill="#E792F6" fill-opacity="0.5"/>
<circle cx="108" cy="114" r="4" fill="#E792F6" fill-opacity="0.5"/>
<circle cx="121" cy="114" r="4" fill="#E792F6" fill-opacity="0.5"/>
<circle cx="134" cy="114" r="4" fill="#E792F6" fill-opacity="0.5"/>
<circle cx="147" cy="114" r="4" fill="#E792F6" fill-opacity="0.3"/>
<circle cx="160" cy="114" r="4" fill="#E792F6" fill-opacity="0.3"/>
<circle cx="4" cy="127" r="4" fill="#E792F6" fill-opacity="0.5"/>
<circle cx="17" cy="127" r="4" fill="#E792F6" fill-opacity="0.5"/>
<circle cx="30" cy="127" r="4" fill="#E792F6" fill-opacity="0.5"/>
<circle cx="43" cy="127" r="4" fill="#E792F6" fill-opacity="0.5"/>
<circle cx="56" cy="127" r="4" fill="#E792F6" fill-opacity="0.5"/>
<circle cx="69" cy="127" r="4" fill="#E792F6" fill-opacity="0.7"/>
<circle cx="82" cy="127" r="4" fill="#E792F6" fill-opacity="0.7"/>
<circle cx="95" cy="127" r="4" fill="#E792F6" fill-opacity="0.5"/>
<circle cx="108" cy="127" r="4" fill="#E792F6" fill-opacity="0.5"/>
<circle cx="121" cy="127" r="4" fill="#E792F6" fill-opacity="0.5"/>
<circle cx="134" cy="127" r="4" fill="#E792F6" fill-opacity="0.5"/>
<circle cx="147" cy="127" r="4" fill="#E792F6" fill-opacity="0.5"/>
<circle cx="160" cy="127" r="4" fill="#E792F6" fill-opacity="0.3"/>
<circle cx="173" cy="127" r="4" fill="#E792F6" fill-opacity="0.1"/>
<circle cx="4" cy="140" r="4" fill="#E792F6" fill-opacity="0.5"/>
<circle cx="17" cy="140" r="4" fill="#E792F6" fill-opacity="0.5"/>
<circle cx="30" cy="140" r="4" fill="#E792F6" fill-opacity="0.5"/>
<circle cx="43" cy="140" r="4" fill="#E792F6" fill-opacity="0.5"/>
<circle cx="56" cy="140" r="4" fill="#E792F6" fill-opacity="0.5"/>
<circle cx="69" cy="140" r="4" fill="#E792F6" fill-opacity="0.7"/>
<circle cx="82" cy="140" r="4" fill="#E792F6" fill-opacity="0.7"/>
<circle cx="95" cy="140" r="4" fill="#E792F6" fill-opacity="0.5"/>
<circle cx="108" cy="140" r="4" fill="#E792F6" fill-opacity="0.5"/>
<circle cx="121" cy="140" r="4" fill="#E792F6" fill-opacity="0.5"/>
<circle cx="134" cy="140" r="4" fill="#E792F6" fill-opacity="0.5"/>
<circle cx="147" cy="140" r="4" fill="#E792F6" fill-opacity="0.5"/>
<circle cx="160" cy="140" r="4" fill="#E792F6" fill-opacity="0.3"/>
<circle cx="173" cy="140" r="4" fill="#E792F6" fill-opacity="0.1"/>
<circle cx="4" cy="153" r="4" fill="#E792F6" fill-opacity="0.5"/>
<circle cx="17" cy="153" r="4" fill="#E792F6" fill-opacity="0.5"/>
<circle cx="30" cy="153" r="4" fill="#E792F6" fill-opacity="0.5"/>
<circle cx="43" cy="153" r="4" fill="#E792F6" fill-opacity="0.5"/>
<circle cx="56" cy="153" r="4" fill="#E792F6" fill-opacity="0.7"/>
<circle cx="69" cy="153" r="4" fill="#E792F6" fill-opacity="0.8"/>
<circle cx="82" cy="153" r="4" fill="#E792F6" fill-opacity="0.8"/>
<circle cx="95" cy="153" r="4" fill="#E792F6" fill-opacity="0.7"/>
<circle cx="108" cy="153" r="4" fill="#E792F6" fill-opacity="0.5"/>
<circle cx="121" cy="153" r="4" fill="#E792F6" fill-opacity="0.5"/>
<circle cx="134" cy="153" r="4" fill="#E792F6" fill-opacity="0.5"/>
<circle cx="147" cy="153" r="4" fill="#E792F6" fill-opacity="0.5"/>
<circle cx="160" cy="153" r="4" fill="#E792F6" fill-opacity="0.3"/>
<circle cx="173" cy="153" r="4" fill="#E792F6" fill-opacity="0.1"/>
<circle cx="4" cy="166" r="4" fill="#E792F6" fill-opacity="0.7"/>
<circle cx="17" cy="166" r="4" fill="#E792F6" fill-opacity="0.7"/>
<circle cx="30" cy="166" r="4" fill="#E792F6" fill-opacity="0.7"/>
<circle cx="43" cy="166" r="4" fill="#E792F6" fill-opacity="0.7"/>
<circle cx="56" cy="166" r="4" fill="#E792F6" fill-opacity="0.9"/>
<circle cx="69" cy="166" r="4" fill="#E792F6"/>
<circle cx="82" cy="166" r="4" fill="#E792F6"/>
<circle cx="95" cy="166" r="4" fill="#E792F6" fill-opacity="0.8"/>
<circle cx="108" cy="166" r="4" fill="#E792F6" fill-opacity="0.7"/>
<circle cx="121" cy="166" r="4" fill="#E792F6" fill-opacity="0.5"/>
<circle cx="134" cy="166" r="4" fill="#E792F6" fill-opacity="0.5"/>
<circle cx="147" cy="166" r="4" fill="#E792F6" fill-opacity="0.5"/>
<circle cx="160" cy="166" r="4" fill="#E792F6" fill-opacity="0.3"/>
<circle cx="173" cy="166" r="4" fill="#E792F6" fill-opacity="0.1"/>
<circle cx="4" cy="179" r="4" fill="#E792F6" fill-opacity="0.5"/>
<circle cx="17" cy="179" r="4" fill="#E792F6" fill-opacity="0.5"/>
<circle cx="30" cy="179" r="4" fill="#E792F6" fill-opacity="0.5"/>
<circle cx="43" cy="179" r="4" fill="#E792F6" fill-opacity="0.7"/>
<circle cx="56" cy="179" r="4" fill="#E792F6" fill-opacity="0.8"/>
<circle cx="69" cy="179" r="4" fill="#E792F6"/>
<circle cx="82" cy="179" r="4" fill="#E792F6"/>
<circle cx="95" cy="179" r="4" fill="#E792F6" fill-opacity="0.8"/>
<circle cx="108" cy="179" r="4" fill="#E792F6" fill-opacity="0.7"/>
<circle cx="121" cy="179" r="4" fill="#E792F6" fill-opacity="0.7"/>
<circle cx="134" cy="179" r="4" fill="#E792F6" fill-opacity="0.7"/>
<circle cx="147" cy="179" r="4" fill="#E792F6" fill-opacity="0.7"/>
<circle cx="160" cy="179" r="4" fill="#E792F6" fill-opacity="0.3"/>
<circle cx="173" cy="179" r="4" fill="#E792F6" fill-opacity="0.1"/>
<circle cx="4" cy="192" r="4" fill="#E792F6" fill-opacity="0.5"/>
<circle cx="17" cy="192" r="4" fill="#E792F6" fill-opacity="0.5"/>
<circle cx="30" cy="192" r="4" fill="#E792F6" fill-opacity="0.5"/>
<circle cx="43" cy="192" r="4" fill="#E792F6" fill-opacity="0.5"/>
<circle cx="56" cy="192" r="4" fill="#E792F6" fill-opacity="0.7"/>
<circle cx="69" cy="192" r="4" fill="#E792F6" fill-opacity="0.8"/>
<circle cx="82" cy="192" r="4" fill="#E792F6" fill-opacity="0.8"/>
<circle cx="95" cy="192" r="4" fill="#E792F6" fill-opacity="0.7"/>
<circle cx="108" cy="192" r="4" fill="#E792F6" fill-opacity="0.5"/>
<circle cx="121" cy="192" r="4" fill="#E792F6" fill-opacity="0.5"/>
<circle cx="134" cy="192" r="4" fill="#E792F6" fill-opacity="0.5"/>
<circle cx="147" cy="192" r="4" fill="#E792F6" fill-opacity="0.5"/>
<circle cx="160" cy="192" r="4" fill="#E792F6" fill-opacity="0.3"/>
<circle cx="173" cy="192" r="4" fill="#E792F6" fill-opacity="0.1"/>
<circle cx="4" cy="205" r="4" fill="#E792F6" fill-opacity="0.5"/>
<circle cx="17" cy="205" r="4" fill="#E792F6" fill-opacity="0.5"/>
<circle cx="30" cy="205" r="4" fill="#E792F6" fill-opacity="0.5"/>
<circle cx="43" cy="205" r="4" fill="#E792F6" fill-opacity="0.5"/>
<circle cx="56" cy="205" r="4" fill="#E792F6" fill-opacity="0.5"/>
<circle cx="69" cy="205" r="4" fill="#E792F6" fill-opacity="0.7"/>
<circle cx="82" cy="205" r="4" fill="#E792F6" fill-opacity="0.7"/>
<circle cx="95" cy="205" r="4" fill="#E792F6" fill-opacity="0.5"/>
<circle cx="108" cy="205" r="4" fill="#E792F6" fill-opacity="0.5"/>
<circle cx="121" cy="205" r="4" fill="#E792F6" fill-opacity="0.5"/>
<circle cx="134" cy="205" r="4" fill="#E792F6" fill-opacity="0.5"/>
<circle cx="147" cy="205" r="4" fill="#E792F6" fill-opacity="0.5"/>
<circle cx="160" cy="205" r="4" fill="#E792F6" fill-opacity="0.3"/>
<circle cx="173" cy="205" r="4" fill="#E792F6" fill-opacity="0.1"/>
<circle cx="4" cy="218" r="4" fill="#E792F6" fill-opacity="0.5"/>
<circle cx="17" cy="218" r="4" fill="#E792F6" fill-opacity="0.5"/>
<circle cx="30" cy="218" r="4" fill="#E792F6" fill-opacity="0.5"/>
<circle cx="43" cy="218" r="4" fill="#E792F6" fill-opacity="0.5"/>
<circle cx="56" cy="218" r="4" fill="#E792F6" fill-opacity="0.5"/>
<circle cx="69" cy="218" r="4" fill="#E792F6" fill-opacity="0.7"/>
<circle cx="82" cy="218" r="4" fill="#E792F6" fill-opacity="0.7"/>
<circle cx="95" cy="218" r="4" fill="#E792F6" fill-opacity="0.5"/>
<circle cx="108" cy="218" r="4" fill="#E792F6" fill-opacity="0.5"/>
<circle cx="121" cy="218" r="4" fill="#E792F6" fill-opacity="0.5"/>
<circle cx="134" cy="218" r="4" fill="#E792F6" fill-opacity="0.5"/>
<circle cx="147" cy="218" r="4" fill="#E792F6" fill-opacity="0.5"/>
<circle cx="160" cy="218" r="4" fill="#E792F6" fill-opacity="0.3"/>
<circle cx="173" cy="218" r="4" fill="#E792F6" fill-opacity="0.1"/>
<circle cx="4" cy="231" r="4" fill="#E792F6" fill-opacity="0.3"/>
<circle cx="17" cy="231" r="4" fill="#E792F6" fill-opacity="0.5"/>
<circle cx="30" cy="231" r="4" fill="#E792F6" fill-opacity="0.5"/>
<circle cx="43" cy="231" r="4" fill="#E792F6" fill-opacity="0.5"/>
<circle cx="56" cy="231" r="4" fill="#E792F6" fill-opacity="0.5"/>
<circle cx="69" cy="231" r="4" fill="#E792F6" fill-opacity="0.7"/>
<circle cx="82" cy="231" r="4" fill="#E792F6" fill-opacity="0.7"/>
<circle cx="95" cy="231" r="4" fill="#E792F6" fill-opacity="0.5"/>
<circle cx="108" cy="231" r="4" fill="#E792F6" fill-opacity="0.5"/>
<circle cx="121" cy="231" r="4" fill="#E792F6" fill-opacity="0.5"/>
<circle cx="134" cy="231" r="4" fill="#E792F6" fill-opacity="0.5"/>
<circle cx="147" cy="231" r="4" fill="#E792F6" fill-opacity="0.3"/>
<circle cx="160" cy="231" r="4" fill="#E792F6" fill-opacity="0.3"/>
<circle cx="4" cy="244" r="4" fill="#E792F6" fill-opacity="0.3"/>
<circle cx="17" cy="244" r="4" fill="#E792F6" fill-opacity="0.3"/>
<circle cx="30" cy="244" r="4" fill="#E792F6" fill-opacity="0.5"/>
<circle cx="43" cy="244" r="4" fill="#E792F6" fill-opacity="0.5"/>
<circle cx="56" cy="244" r="4" fill="#E792F6" fill-opacity="0.5"/>
<circle cx="69" cy="244" r="4" fill="#E792F6" fill-opacity="0.5"/>
<circle cx="82" cy="244" r="4" fill="#E792F6" fill-opacity="0.5"/>
<circle cx="95" cy="244" r="4" fill="#E792F6" fill-opacity="0.5"/>
<circle cx="108" cy="244" r="4" fill="#E792F6" fill-opacity="0.5"/>
<circle cx="121" cy="244" r="4" fill="#E792F6" fill-opacity="0.5"/>
<circle cx="134" cy="244" r="4" fill="#E792F6" fill-opacity="0.3"/>
<circle cx="147" cy="244" r="4" fill="#E792F6" fill-opacity="0.3"/>
<circle cx="160" cy="244" r="4" fill="#E792F6" fill-opacity="0.1"/>
<circle cx="4" cy="257" r="4" fill="#E792F6" fill-opacity="0.1"/>
<circle cx="17" cy="257" r="4" fill="#E792F6" fill-opacity="0.3"/>
<circle cx="30" cy="257" r="4" fill="#E792F6" fill-opacity="0.3"/>
<circle cx="43" cy="257" r="4" fill="#E792F6" fill-opacity="0.3"/>
<circle cx="56" cy="257" r="4" fill="#E792F6" fill-opacity="0.3"/>
<circle cx="69" cy="257" r="4" fill="#E792F6" fill-opacity="0.3"/>
<circle cx="82" cy="257" r="4" fill="#E792F6" fill-opacity="0.3"/>
<circle cx="95" cy="257" r="4" fill="#E792F6" fill-opacity="0.3"/>
<circle cx="108" cy="257" r="4" fill="#E792F6" fill-opacity="0.3"/>
<circle cx="121" cy="257" r="4" fill="#E792F6" fill-opacity="0.3"/>
<circle cx="134" cy="257" r="4" fill="#E792F6" fill-opacity="0.3"/>
<circle cx="147" cy="257" r="4" fill="#E792F6" fill-opacity="0.1"/>
<circle cx="30" cy="270" r="4" fill="#E792F6" fill-opacity="0.1"/>
<circle cx="43" cy="270" r="4" fill="#E792F6" fill-opacity="0.1"/>
<circle cx="56" cy="270" r="4" fill="#E792F6" fill-opacity="0.1"/>
<circle cx="69" cy="270" r="4" fill="#E792F6" fill-opacity="0.1"/>
<circle cx="82" cy="270" r="4" fill="#E792F6" fill-opacity="0.1"/>
<circle cx="95" cy="270" r="4" fill="#E792F6" fill-opacity="0.1"/>
<circle cx="108" cy="270" r="4" fill="#E792F6" fill-opacity="0.1"/>
<circle cx="121" cy="270" r="4" fill="#E792F6" fill-opacity="0.1"/>
</g>
<circle cx="57.5" cy="47.5" r="27.5" fill="#F5F5F5"/>
<path d="M66.6094 33.0264L66.6094 56.4801" stroke="#AC2A9E" stroke-width="1.01316" stroke-linecap="round"/>
<rect x="65.0977" y="38.2773" width="3.02629" height="12.602" rx="0.756573" fill="#AC2A9E"/>
<path d="M70.7705 35.6748L70.7705 53.4543" stroke="#AC2A9E" stroke-width="1.01316" stroke-linecap="round"/>
<path d="M74.9336 38.3223L74.9336 48.536" stroke="#AC2A9E" stroke-width="1.01316" stroke-linecap="round"/>
<path d="M58.2871 35.6748L58.098 66.316" stroke="#AC2A9E" stroke-width="1.01316" stroke-linecap="round"/>
<rect x="56.7754" y="40.9707" width="3.02629" height="19.6709" rx="0.756573" fill="#AC2A9E"/>
<path d="M62.4502 33.0264L62.4502 62.1544" stroke="#AC2A9E" stroke-width="1.01316" stroke-linecap="round"/>
<rect x="60.9365" y="37.1875" width="3.02629" height="20.0492" rx="0.756573" fill="#AC2A9E"/>
<path d="M49.9648 33.0264L49.9648 56.4801" stroke="#AC2A9E" stroke-width="1.01316" stroke-linecap="round"/>
<rect width="3.02629" height="12.602" rx="0.756573" transform="matrix(-1 0 0 1 51.4785 37.9268)" fill="#AC2A9E"/>
<path d="M45.8037 35.6748L45.8037 53.4543" stroke="#AC2A9E" stroke-width="1.01316" stroke-linecap="round"/>
<path d="M41.6426 38.3223L41.6426 48.536" stroke="#AC2A9E" stroke-width="1.01316" stroke-linecap="round"/>
<path d="M54.1279 33.0264L54.1279 62.1544" stroke="#AC2A9E" stroke-width="1.01316" stroke-linecap="round"/>
<rect width="3.02629" height="20.0492" rx="0.756573" transform="matrix(-1 0 0 1 55.6416 37.1875)" fill="#AC2A9E"/>
<path d="M78.66 152.44V154H64.2V152.44L67.5 152.08C68.14 152 68.52 151.84 68.64 151.6C68.76 151.32 68.82 150.5 68.82 149.14V116.62L56.34 149.2H52.26L39.72 116.62V149.14C39.72 150.5 39.78 151.32 39.9 151.6C40.02 151.84 40.4 152 41.04 152.08L44.34 152.44V154H32.88V152.44L36.18 152.08C36.82 152 37.2 151.84 37.32 151.6C37.44 151.32 37.5 150.5 37.5 149.14V118.06C37.5 116.7 37.44 115.9 37.32 115.66C37.2 115.38 36.82 115.2 36.18 115.12L32.88 114.82V113.2H43.86L55.92 144.7L67.98 113.2H78.66V114.82L75.36 115.12C74.72 115.2 74.34 115.38 74.22 115.66C74.1 115.9 74.04 116.7 74.04 118.06V149.14C74.04 150.5 74.1 151.32 74.22 151.6C74.34 151.84 74.72 152 75.36 152.08L78.66 152.44ZM107.841 154.42C104.721 154.42 102.881 152.98 102.321 150.1C100.921 151.7 99.3811 152.86 97.7011 153.58C96.0211 154.26 94.3611 154.6 92.7211 154.6C89.9211 154.6 87.8611 153.82 86.5411 152.26C85.2211 150.7 84.5611 148.82 84.5611 146.62C84.5611 144.26 85.3611 142.4 86.9611 141.04C88.6011 139.64 91.4211 138.94 95.4211 138.94H102.201V134.08C102.201 130.88 101.641 128.68 100.521 127.48C99.4411 126.24 97.9611 125.62 96.0811 125.62C94.8811 125.62 93.8011 125.86 92.8411 126.34C91.8811 126.82 91.1811 127.7 90.7411 128.98C90.3411 130.22 90.3011 132.04 90.6211 134.44L85.8811 133.72C85.6811 131.84 85.9211 130.16 86.6011 128.68C87.3211 127.16 88.4811 125.96 90.0811 125.08C91.7211 124.16 93.7611 123.7 96.2011 123.7C99.1211 123.7 101.361 124.2 102.921 125.2C104.481 126.16 105.561 127.42 106.161 128.98C106.801 130.54 107.121 132.24 107.121 134.08V147.58C107.121 149.62 107.341 150.9 107.781 151.42C108.261 151.94 108.781 152.2 109.341 152.2C109.701 152.2 110.081 152.12 110.481 151.96C110.881 151.76 111.321 151.46 111.801 151.06L112.881 152.56C112.281 153.08 111.561 153.52 110.721 153.88C109.921 154.24 108.961 154.42 107.841 154.42ZM94.4011 152.08C95.5211 152.08 96.7211 151.78 98.0011 151.18C99.3211 150.54 100.721 149.28 102.201 147.4V140.86H96.0811C93.8411 140.86 92.2011 141.32 91.1611 142.24C90.1611 143.12 89.6611 144.5 89.6611 146.38C89.6611 148.18 90.0411 149.58 90.8011 150.58C91.6011 151.58 92.8011 152.08 94.4011 152.08ZM134.723 147.88C134.123 150.2 133.183 151.9 131.903 152.98C130.623 154.06 128.983 154.6 126.983 154.6C125.063 154.6 123.503 154.18 122.303 153.34C121.103 152.46 120.223 151.32 119.663 149.92C119.103 148.52 118.823 147.06 118.823 145.54V129.16C118.823 127.76 118.763 126.94 118.643 126.7C118.563 126.46 118.183 126.3 117.503 126.22L114.203 125.92V124.3H118.823V116.44L123.743 115.42V124.3H133.523V126.22H123.743V146.02C123.743 148.54 124.083 150.28 124.763 151.24C125.483 152.2 126.423 152.68 127.583 152.68C128.743 152.68 129.623 152.24 130.223 151.36C130.863 150.48 131.323 149.04 131.603 147.04L134.723 147.88ZM151.567 125.62C149.367 125.62 147.647 126.54 146.407 128.38C145.207 130.18 144.607 133.16 144.607 137.32V140.92C144.607 145.12 145.207 148.14 146.407 149.98C147.647 151.78 149.647 152.68 152.407 152.68C154.287 152.68 155.807 152.2 156.967 151.24C158.127 150.28 158.907 148.62 159.307 146.26L162.487 147.16C161.767 149.88 160.447 151.8 158.527 152.92C156.607 154.04 154.467 154.6 152.107 154.6C147.787 154.6 144.547 153.26 142.387 150.58C140.267 147.86 139.207 144.24 139.207 139.72V138.52C139.207 134.04 140.267 130.46 142.387 127.78C144.507 125.06 147.567 123.7 151.567 123.7C154.127 123.7 156.247 124.2 157.927 125.2C159.647 126.2 160.867 127.56 161.587 129.28C162.307 130.96 162.507 132.82 162.187 134.86L157.447 135.58C157.887 132.38 157.587 129.92 156.547 128.2C155.547 126.48 153.887 125.62 151.567 125.62ZM200.164 152.44V154H186.004V152.44L189.304 152.08C189.944 152 190.324 151.84 190.444 151.6C190.564 151.36 190.624 150.54 190.624 149.14V134.2C190.624 131.24 190.144 129.16 189.184 127.96C188.224 126.72 186.864 126.1 185.104 126.1C183.744 126.1 182.264 126.5 180.664 127.3C179.064 128.1 177.564 129.68 176.164 132.04V149.14C176.164 150.54 176.224 151.36 176.344 151.6C176.464 151.84 176.844 152 177.484 152.08L180.784 152.44V154H166.624V152.44L169.924 152.08C170.564 152 170.944 151.84 171.064 151.6C171.184 151.36 171.244 150.54 171.244 149.14V114.46C171.244 113.06 171.184 112.24 171.064 112C170.944 111.76 170.564 111.6 169.924 111.52L166.624 111.22V109.6H176.164V128.86C177.564 127.06 179.164 125.76 180.964 124.96C182.764 124.12 184.544 123.7 186.304 123.7C189.264 123.7 191.544 124.62 193.144 126.46C194.744 128.26 195.544 130.82 195.544 134.14V149.14C195.544 150.54 195.604 151.36 195.724 151.6C195.844 151.84 196.224 152 196.864 152.08L200.164 152.44ZM235.859 147.88C235.259 150.2 234.319 151.9 233.039 152.98C231.759 154.06 230.119 154.6 228.119 154.6C226.199 154.6 224.639 154.18 223.439 153.34C222.239 152.46 221.359 151.32 220.799 149.92C220.239 148.52 219.959 147.06 219.959 145.54V129.16C219.959 127.76 219.899 126.94 219.779 126.7C219.699 126.46 219.319 126.3 218.639 126.22L215.339 125.92V124.3H219.959V116.44L224.879 115.42V124.3H234.659V126.22H224.879V146.02C224.879 148.54 225.219 150.28 225.899 151.24C226.619 152.2 227.559 152.68 228.719 152.68C229.879 152.68 230.759 152.24 231.359 151.36C231.999 150.48 232.459 149.04 232.739 147.04L235.859 147.88ZM271.782 152.44V154H257.622V152.44L260.922 152.08C261.562 152 261.942 151.84 262.062 151.6C262.182 151.36 262.242 150.54 262.242 149.14V134.2C262.242 131.24 261.762 129.16 260.802 127.96C259.842 126.72 258.482 126.1 256.722 126.1C255.362 126.1 253.882 126.5 252.282 127.3C250.682 128.1 249.182 129.68 247.782 132.04V149.14C247.782 150.54 247.842 151.36 247.962 151.6C248.082 151.84 248.462 152 249.102 152.08L252.402 152.44V154H238.242V152.44L241.542 152.08C242.182 152 242.562 151.84 242.682 151.6C242.802 151.36 242.862 150.54 242.862 149.14V114.46C242.862 113.06 242.802 112.24 242.682 112C242.562 111.76 242.182 111.6 241.542 111.52L238.242 111.22V109.6H247.782V128.86C249.182 127.06 250.782 125.76 252.582 124.96C254.382 124.12 256.162 123.7 257.922 123.7C260.882 123.7 263.162 124.62 264.762 126.46C266.362 128.26 267.162 130.82 267.162 134.14V149.14C267.162 150.54 267.222 151.36 267.342 151.6C267.462 151.84 267.842 152 268.482 152.08L271.782 152.44ZM300.243 147.16C299.523 149.88 298.163 151.8 296.163 152.92C294.203 154.04 292.023 154.6 289.623 154.6C285.183 154.6 281.863 153.26 279.663 150.58C277.463 147.86 276.363 144.24 276.363 139.72V138.52C276.363 134.04 277.423 130.46 279.543 127.78C281.663 125.06 284.743 123.7 288.783 123.7C290.943 123.7 292.903 124.14 294.663 125.02C296.463 125.9 297.883 127.2 298.923 128.92C300.003 130.64 300.543 132.78 300.543 135.34C300.543 136.54 300.423 137.8 300.183 139.12H281.763V140.92C281.763 145.12 282.403 148.14 283.683 149.98C285.003 151.78 287.123 152.68 290.043 152.68C291.883 152.68 293.403 152.2 294.603 151.24C295.843 150.28 296.663 148.62 297.063 146.26L300.243 147.16ZM288.783 125.62C286.423 125.62 284.663 126.52 283.503 128.32C282.343 130.12 281.763 133.08 281.763 137.2H295.263V137.02C295.343 136.5 295.403 136 295.443 135.52C295.483 135 295.503 134.54 295.503 134.14C295.503 131.14 294.883 128.98 293.643 127.66C292.403 126.3 290.783 125.62 288.783 125.62ZM331.26 141.88L327.6 140.98C322.6 139.7 320.1 136.82 320.1 132.34C320.1 130.86 320.44 129.46 321.12 128.14C321.8 126.82 322.88 125.76 324.36 124.96C325.88 124.12 327.82 123.7 330.18 123.7C332.82 123.7 334.94 124.14 336.54 125.02C338.14 125.9 339.26 127.04 339.9 128.44C340.54 129.84 340.74 131.36 340.5 133L335.82 133.84C336.3 131.24 336.02 129.22 334.98 127.78C333.98 126.34 332.32 125.62 330 125.62C328.2 125.62 326.76 126.08 325.68 127C324.6 127.88 324.06 129.18 324.06 130.9C324.06 132.18 324.46 133.32 325.26 134.32C326.06 135.28 327.4 136 329.28 136.48L333.06 137.38C335.7 138.02 337.74 139.04 339.18 140.44C340.66 141.84 341.4 143.68 341.4 145.96C341.4 148.52 340.46 150.6 338.58 152.2C336.74 153.8 334.1 154.6 330.66 154.6C329.02 154.6 327.42 154.36 325.86 153.88C324.34 153.36 323 152.56 321.84 151.48C320.72 150.36 319.9 148.92 319.38 147.16L322.74 145.96C323.18 148.48 324.14 150.24 325.62 151.24C327.1 152.24 328.8 152.74 330.72 152.74C331.84 152.74 332.9 152.56 333.9 152.2C334.94 151.84 335.78 151.28 336.42 150.52C337.06 149.72 337.38 148.7 337.38 147.46C337.38 146.18 336.94 145.08 336.06 144.16C335.18 143.24 333.58 142.48 331.26 141.88ZM374.018 138.52V139.72C374.018 144.24 372.878 147.86 370.598 150.58C368.358 153.26 365.158 154.6 360.998 154.6C356.878 154.6 353.678 153.26 351.398 150.58C349.158 147.86 348.038 144.24 348.038 139.72V138.52C348.038 134.04 349.158 130.46 351.398 127.78C353.638 125.06 356.838 123.7 360.998 123.7C365.158 123.7 368.358 125.06 370.598 127.78C372.878 130.46 374.018 134.04 374.018 138.52ZM368.618 137.32C368.618 133.16 367.958 130.18 366.638 128.38C365.358 126.54 363.478 125.62 360.998 125.62C358.558 125.62 356.678 126.54 355.358 128.38C354.078 130.18 353.438 133.16 353.438 137.32V140.92C353.438 145.12 354.078 148.14 355.358 149.98C356.678 151.78 358.558 152.68 360.998 152.68C363.478 152.68 365.358 151.78 366.638 149.98C367.958 148.14 368.618 145.12 368.618 140.92V137.32ZM411.316 152.44V154H402.076V149.2C400.676 151.08 399.076 152.46 397.276 153.34C395.516 154.18 393.756 154.6 391.996 154.6C389.156 154.6 386.936 153.7 385.336 151.9C383.776 150.06 382.996 147.48 382.996 144.16V129.16C382.996 127.76 382.936 126.94 382.816 126.7C382.696 126.46 382.316 126.3 381.676 126.22L378.376 125.92V124.3H387.916V144.1C387.916 147.06 388.356 149.16 389.236 150.4C390.156 151.6 391.476 152.2 393.196 152.2C394.476 152.2 395.876 151.8 397.396 151C398.956 150.2 400.416 148.66 401.776 146.38V129.16C401.776 127.76 401.716 126.94 401.596 126.7C401.476 126.42 401.096 126.26 400.456 126.22L395.956 125.92V124.3H406.696V149.14C406.696 150.54 406.756 151.36 406.876 151.6C406.996 151.84 407.376 152 408.016 152.08L411.316 152.44ZM448.074 152.44V154H433.914V152.44L437.214 152.08C437.854 152 438.234 151.84 438.354 151.6C438.474 151.36 438.534 150.54 438.534 149.14V134.2C438.534 131.24 438.054 129.16 437.094 127.96C436.134 126.72 434.754 126.1 432.954 126.1C431.634 126.1 430.174 126.5 428.574 127.3C426.974 128.1 425.474 129.66 424.074 131.98V149.14C424.074 150.54 424.134 151.36 424.254 151.6C424.374 151.84 424.754 152 425.394 152.08L428.694 152.44V154H414.534V152.44L417.834 152.08C418.474 152 418.854 151.84 418.974 151.6C419.094 151.36 419.154 150.54 419.154 149.14V129.16C419.154 127.76 419.094 126.94 418.974 126.7C418.854 126.46 418.474 126.3 417.834 126.22L414.534 125.92V124.3H423.774V129.16C425.214 127.24 426.834 125.86 428.634 125.02C430.474 124.14 432.314 123.7 434.154 123.7C437.114 123.7 439.394 124.62 440.994 126.46C442.634 128.26 443.454 130.82 443.454 134.14V149.14C443.454 150.54 443.514 151.36 443.634 151.6C443.754 151.84 444.134 152 444.774 152.08L448.074 152.44ZM481.986 152.5V154H472.746V149.26C471.506 151.1 470.126 152.46 468.606 153.34C467.126 154.18 465.466 154.6 463.626 154.6C460.186 154.6 457.506 153.32 455.586 150.76C453.706 148.16 452.766 144.5 452.766 139.78V138.58C452.766 134.06 453.866 130.46 456.066 127.78C458.306 125.06 461.366 123.7 465.246 123.7C468.086 123.7 470.486 124.58 472.446 126.34V114.46C472.446 113.06 472.386 112.24 472.266 112C472.146 111.76 471.766 111.6 471.126 111.52L467.826 111.22V109.6H477.366V149.14C477.366 150.54 477.426 151.36 477.546 151.6C477.666 151.84 478.046 152 478.686 152.08L481.986 152.5ZM458.166 141.58C458.166 145.34 458.706 148.1 459.786 149.86C460.906 151.62 462.446 152.5 464.406 152.5C465.686 152.5 467.006 152.1 468.366 151.3C469.726 150.5 471.086 148.88 472.446 146.44V129.28C470.686 126.92 468.386 125.74 465.546 125.74C462.986 125.74 461.106 126.72 459.906 128.68C458.746 130.64 458.166 133.34 458.166 136.78V141.58ZM512.864 157C511.984 159.44 511.024 161.42 509.984 162.94C508.944 164.5 507.704 165.62 506.264 166.3C504.824 167.02 503.024 167.38 500.864 167.38V162.58C503.744 162.58 505.924 162.12 507.404 161.2C508.884 160.32 510.064 158.66 510.944 156.22L511.724 154H509.984L501.164 128.8C500.764 127.64 500.464 126.96 500.264 126.76C500.064 126.52 499.644 126.36 499.004 126.28L495.944 125.92V124.3H509.624V125.92L506.564 126.28C506.004 126.32 505.684 126.46 505.604 126.7C505.524 126.94 505.684 127.64 506.084 128.8L513.284 149.56L520.544 128.74C520.904 127.58 521.044 126.9 520.964 126.7C520.924 126.5 520.604 126.36 520.004 126.28L516.884 125.92V124.3H527.864V125.92L524.804 126.28C524.204 126.36 523.804 126.5 523.604 126.7C523.404 126.9 523.104 127.58 522.704 128.74L512.864 157ZM555.691 138.52V139.72C555.691 144.24 554.551 147.86 552.271 150.58C550.031 153.26 546.831 154.6 542.671 154.6C538.551 154.6 535.351 153.26 533.071 150.58C530.831 147.86 529.711 144.24 529.711 139.72V138.52C529.711 134.04 530.831 130.46 533.071 127.78C535.311 125.06 538.511 123.7 542.671 123.7C546.831 123.7 550.031 125.06 552.271 127.78C554.551 130.46 555.691 134.04 555.691 138.52ZM550.291 137.32C550.291 133.16 549.631 130.18 548.311 128.38C547.031 126.54 545.151 125.62 542.671 125.62C540.231 125.62 538.351 126.54 537.031 128.38C535.751 130.18 535.111 133.16 535.111 137.32V140.92C535.111 145.12 535.751 148.14 537.031 149.98C538.351 151.78 540.231 152.68 542.671 152.68C545.151 152.68 547.031 151.78 548.311 149.98C549.631 148.14 550.291 145.12 550.291 140.92V137.32ZM592.99 152.44V154H583.75V149.2C582.35 151.08 580.75 152.46 578.95 153.34C577.19 154.18 575.43 154.6 573.67 154.6C570.83 154.6 568.61 153.7 567.01 151.9C565.45 150.06 564.67 147.48 564.67 144.16V129.16C564.67 127.76 564.61 126.94 564.49 126.7C564.37 126.46 563.99 126.3 563.35 126.22L560.05 125.92V124.3H569.59V144.1C569.59 147.06 570.03 149.16 570.91 150.4C571.83 151.6 573.15 152.2 574.87 152.2C576.15 152.2 577.55 151.8 579.07 151C580.63 150.2 582.09 148.66 583.45 146.38V129.16C583.45 127.76 583.39 126.94 583.27 126.7C583.15 126.42 582.77 126.26 582.13 126.22L577.63 125.92V124.3H588.37V149.14C588.37 150.54 588.43 151.36 588.55 151.6C588.67 151.84 589.05 152 589.69 152.08L592.99 152.44ZM65.22 224.44V226H51.06V224.44L54.36 224.08C55 224 55.38 223.84 55.5 223.6C55.62 223.36 55.68 222.54 55.68 221.14V206.2C55.68 203.24 55.2 201.16 54.24 199.96C53.28 198.72 51.92 198.1 50.16 198.1C48.8 198.1 47.32 198.5 45.72 199.3C44.12 200.1 42.62 201.68 41.22 204.04V221.14C41.22 222.54 41.28 223.36 41.4 223.6C41.52 223.84 41.9 224 42.54 224.08L45.84 224.44V226H31.68V224.44L34.98 224.08C35.62 224 36 223.84 36.12 223.6C36.24 223.36 36.3 222.54 36.3 221.14V186.46C36.3 185.06 36.24 184.24 36.12 184C36 183.76 35.62 183.6 34.98 183.52L31.68 183.22V181.6H41.22V200.86C42.62 199.06 44.22 197.76 46.02 196.96C47.82 196.12 49.6 195.7 51.36 195.7C54.32 195.7 56.6 196.62 58.2 198.46C59.8 200.26 60.6 202.82 60.6 206.14V221.14C60.6 222.54 60.66 223.36 60.78 223.6C60.9 223.84 61.28 224 61.92 224.08L65.22 224.44ZM93.6811 219.16C92.9611 221.88 91.6011 223.8 89.6011 224.92C87.6411 226.04 85.4611 226.6 83.0611 226.6C78.6211 226.6 75.3011 225.26 73.1011 222.58C70.9011 219.86 69.8011 216.24 69.8011 211.72V210.52C69.8011 206.04 70.8611 202.46 72.9811 199.78C75.1011 197.06 78.1811 195.7 82.2211 195.7C84.3811 195.7 86.3411 196.14 88.1011 197.02C89.9011 197.9 91.3211 199.2 92.3611 200.92C93.4411 202.64 93.9811 204.78 93.9811 207.34C93.9811 208.54 93.8611 209.8 93.6211 211.12H75.2011V212.92C75.2011 217.12 75.8411 220.14 77.1211 221.98C78.4411 223.78 80.5611 224.68 83.4811 224.68C85.3211 224.68 86.8411 224.2 88.0411 223.24C89.2811 222.28 90.1011 220.62 90.5011 218.26L93.6811 219.16ZM82.2211 197.62C79.8611 197.62 78.1011 198.52 76.9411 200.32C75.7811 202.12 75.2011 205.08 75.2011 209.2H88.7011V209.02C88.7811 208.5 88.8411 208 88.8811 207.52C88.9211 207 88.9411 206.54 88.9411 206.14C88.9411 203.14 88.3211 200.98 87.0811 199.66C85.8411 198.3 84.2211 197.62 82.2211 197.62ZM123.765 226.42C120.645 226.42 118.805 224.98 118.245 222.1C116.845 223.7 115.305 224.86 113.625 225.58C111.945 226.26 110.285 226.6 108.645 226.6C105.845 226.6 103.785 225.82 102.465 224.26C101.145 222.7 100.485 220.82 100.485 218.62C100.485 216.26 101.285 214.4 102.885 213.04C104.525 211.64 107.345 210.94 111.345 210.94H118.125V206.08C118.125 202.88 117.565 200.68 116.445 199.48C115.365 198.24 113.885 197.62 112.005 197.62C110.805 197.62 109.725 197.86 108.765 198.34C107.805 198.82 107.105 199.7 106.665 200.98C106.265 202.22 106.225 204.04 106.545 206.44L101.805 205.72C101.605 203.84 101.845 202.16 102.525 200.68C103.245 199.16 104.405 197.96 106.005 197.08C107.645 196.16 109.685 195.7 112.125 195.7C115.045 195.7 117.285 196.2 118.845 197.2C120.405 198.16 121.485 199.42 122.085 200.98C122.725 202.54 123.045 204.24 123.045 206.08V219.58C123.045 221.62 123.265 222.9 123.705 223.42C124.185 223.94 124.705 224.2 125.265 224.2C125.625 224.2 126.005 224.12 126.405 223.96C126.805 223.76 127.245 223.46 127.725 223.06L128.805 224.56C128.205 225.08 127.485 225.52 126.645 225.88C125.845 226.24 124.885 226.42 123.765 226.42ZM110.325 224.08C111.445 224.08 112.645 223.78 113.925 223.18C115.245 222.54 116.645 221.28 118.125 219.4V212.86H112.005C109.765 212.86 108.125 213.32 107.085 214.24C106.085 215.12 105.585 216.5 105.585 218.38C105.585 220.18 105.965 221.58 106.725 222.58C107.525 223.58 108.725 224.08 110.325 224.08ZM130.847 197.92V196.3H140.087V201.1C141.487 199.22 142.887 197.86 144.287 197.02C145.727 196.14 147.187 195.7 148.667 195.7C149.947 195.7 151.147 196.08 152.267 196.84C153.387 197.6 154.327 198.82 155.087 200.5L151.187 202.84C150.587 201.4 149.907 200.4 149.147 199.84C148.387 199.28 147.547 199 146.627 199C145.627 199 144.627 199.32 143.627 199.96C142.667 200.6 141.587 201.8 140.387 203.56V221.14C140.387 222.54 140.447 223.38 140.567 223.66C140.687 223.9 141.067 224.04 141.707 224.08L146.207 224.44V226H130.847V224.44L134.147 224.08C134.787 224 135.167 223.84 135.287 223.6C135.407 223.36 135.467 222.54 135.467 221.14V201.16C135.467 199.76 135.407 198.94 135.287 198.7C135.167 198.46 134.787 198.3 134.147 198.22L130.847 197.92ZM209.088 200.8L202.368 226H198.468L190.608 201.22L182.748 226H179.028L172.368 200.8C172.088 199.64 171.848 198.94 171.648 198.7C171.488 198.46 171.088 198.3 170.448 198.22L167.388 197.92V196.3H181.008V197.92L177.888 198.22C177.248 198.3 176.888 198.46 176.808 198.7C176.768 198.94 176.908 199.64 177.228 200.8L182.388 220.6L190.008 196.3H193.908L201.648 220.96L206.868 200.8C207.188 199.64 207.308 198.94 207.228 198.7C207.188 198.46 206.848 198.3 206.208 198.22L203.088 197.92V196.3H214.068V197.92L211.008 198.22C210.408 198.3 210.008 198.46 209.808 198.7C209.648 198.94 209.408 199.64 209.088 200.8ZM222.493 189.58C221.533 189.58 220.733 189.28 220.093 188.68C219.493 188.04 219.193 187.22 219.193 186.22C219.193 185.26 219.493 184.48 220.093 183.88C220.733 183.28 221.533 182.98 222.493 182.98C223.453 182.98 224.233 183.28 224.833 183.88C225.473 184.48 225.793 185.26 225.793 186.22C225.793 187.22 225.473 188.04 224.833 188.68C224.233 189.28 223.453 189.58 222.493 189.58ZM215.473 197.92V196.3H225.013V221.14C225.013 222.54 225.073 223.36 225.193 223.6C225.313 223.84 225.693 224 226.333 224.08L229.633 224.44V226H215.473V224.44L218.773 224.08C219.413 224 219.793 223.84 219.913 223.6C220.033 223.36 220.093 222.54 220.093 221.14V201.16C220.093 199.76 220.033 198.94 219.913 198.7C219.793 198.46 219.413 198.3 218.773 198.22L215.473 197.92ZM252.602 219.88C252.002 222.2 251.062 223.9 249.782 224.98C248.502 226.06 246.862 226.6 244.862 226.6C242.942 226.6 241.382 226.18 240.182 225.34C238.982 224.46 238.102 223.32 237.542 221.92C236.982 220.52 236.702 219.06 236.702 217.54V201.16C236.702 199.76 236.642 198.94 236.522 198.7C236.442 198.46 236.062 198.3 235.382 198.22L232.082 197.92V196.3H236.702V188.44L241.622 187.42V196.3H251.402V198.22H241.622V218.02C241.622 220.54 241.962 222.28 242.642 223.24C243.362 224.2 244.302 224.68 245.462 224.68C246.622 224.68 247.502 224.24 248.102 223.36C248.742 222.48 249.202 221.04 249.482 219.04L252.602 219.88ZM288.525 224.44V226H274.365V224.44L277.665 224.08C278.305 224 278.685 223.84 278.805 223.6C278.925 223.36 278.985 222.54 278.985 221.14V206.2C278.985 203.24 278.505 201.16 277.545 199.96C276.585 198.72 275.225 198.1 273.465 198.1C272.105 198.1 270.625 198.5 269.025 199.3C267.425 200.1 265.925 201.68 264.525 204.04V221.14C264.525 222.54 264.585 223.36 264.705 223.6C264.825 223.84 265.205 224 265.845 224.08L269.145 224.44V226H254.985V224.44L258.285 224.08C258.925 224 259.305 223.84 259.425 223.6C259.545 223.36 259.605 222.54 259.605 221.14V186.46C259.605 185.06 259.545 184.24 259.425 184C259.305 183.76 258.925 183.6 258.285 183.52L254.985 183.22V181.6H264.525V200.86C265.925 199.06 267.525 197.76 269.325 196.96C271.125 196.12 272.905 195.7 274.665 195.7C277.625 195.7 279.905 196.62 281.505 198.46C283.105 200.26 283.905 202.82 283.905 206.14V221.14C283.905 222.54 283.965 223.36 284.085 223.6C284.205 223.84 284.585 224 285.225 224.08L288.525 224.44ZM324.22 219.88C323.62 222.2 322.68 223.9 321.4 224.98C320.12 226.06 318.48 226.6 316.48 226.6C314.56 226.6 313 226.18 311.8 225.34C310.6 224.46 309.72 223.32 309.16 221.92C308.6 220.52 308.32 219.06 308.32 217.54V201.16C308.32 199.76 308.26 198.94 308.14 198.7C308.06 198.46 307.68 198.3 307 198.22L303.7 197.92V196.3H308.32V188.44L313.24 187.42V196.3H323.02V198.22H313.24V218.02C313.24 220.54 313.58 222.28 314.26 223.24C314.98 224.2 315.92 224.68 317.08 224.68C318.24 224.68 319.12 224.24 319.72 223.36C320.36 222.48 320.82 221.04 321.1 219.04L324.22 219.88ZM360.143 224.44V226H345.983V224.44L349.283 224.08C349.923 224 350.303 223.84 350.423 223.6C350.543 223.36 350.603 222.54 350.603 221.14V206.2C350.603 203.24 350.123 201.16 349.163 199.96C348.203 198.72 346.843 198.1 345.083 198.1C343.723 198.1 342.243 198.5 340.643 199.3C339.043 200.1 337.543 201.68 336.143 204.04V221.14C336.143 222.54 336.203 223.36 336.323 223.6C336.443 223.84 336.823 224 337.463 224.08L340.763 224.44V226H326.603V224.44L329.903 224.08C330.543 224 330.923 223.84 331.043 223.6C331.163 223.36 331.223 222.54 331.223 221.14V186.46C331.223 185.06 331.163 184.24 331.043 184C330.923 183.76 330.543 183.6 329.903 183.52L326.603 183.22V181.6H336.143V200.86C337.543 199.06 339.143 197.76 340.943 196.96C342.743 196.12 344.523 195.7 346.283 195.7C349.243 195.7 351.523 196.62 353.123 198.46C354.723 200.26 355.523 202.82 355.523 206.14V221.14C355.523 222.54 355.583 223.36 355.703 223.6C355.823 223.84 356.203 224 356.843 224.08L360.143 224.44ZM388.605 219.16C387.885 221.88 386.525 223.8 384.525 224.92C382.565 226.04 380.385 226.6 377.985 226.6C373.545 226.6 370.225 225.26 368.025 222.58C365.825 219.86 364.725 216.24 364.725 211.72V210.52C364.725 206.04 365.785 202.46 367.905 199.78C370.025 197.06 373.105 195.7 377.145 195.7C379.305 195.7 381.265 196.14 383.025 197.02C384.825 197.9 386.245 199.2 387.285 200.92C388.365 202.64 388.905 204.78 388.905 207.34C388.905 208.54 388.785 209.8 388.545 211.12H370.125V212.92C370.125 217.12 370.765 220.14 372.045 221.98C373.365 223.78 375.485 224.68 378.405 224.68C380.245 224.68 381.765 224.2 382.965 223.24C384.205 222.28 385.025 220.62 385.425 218.26L388.605 219.16ZM377.145 197.62C374.785 197.62 373.025 198.52 371.865 200.32C370.705 202.12 370.125 205.08 370.125 209.2H383.625V209.02C383.705 208.5 383.765 208 383.805 207.52C383.845 207 383.865 206.54 383.865 206.14C383.865 203.14 383.245 200.98 382.005 199.66C380.765 198.3 379.145 197.62 377.145 197.62ZM406.542 183.22V181.6H416.082V212.32L427.422 200.8C428.582 199.64 429.202 198.94 429.282 198.7C429.362 198.46 429.062 198.3 428.382 198.22L425.322 197.92V196.3H436.902V197.92L433.842 198.22C433.482 198.26 433.182 198.34 432.942 198.46C432.702 198.54 432.382 198.76 431.982 199.12C431.622 199.44 431.042 200 430.242 200.8L423.642 207.46L432.462 221.5C432.982 222.3 433.362 222.88 433.602 223.24C433.882 223.56 434.142 223.78 434.382 223.9C434.622 223.98 434.942 224.04 435.342 224.08L438.462 224.44V226H429.402L420.282 210.88L416.082 215.14V221.14C416.082 222.54 416.142 223.36 416.262 223.6C416.382 223.84 416.762 224 417.402 224.08L420.702 224.44V226H406.542V224.44L409.842 224.08C410.482 224 410.862 223.84 410.982 223.6C411.102 223.36 411.162 222.54 411.162 221.14V186.46C411.162 185.06 411.102 184.24 410.982 184C410.862 183.76 410.482 183.6 409.842 183.52L406.542 183.22ZM465.379 219.16C464.659 221.88 463.299 223.8 461.299 224.92C459.339 226.04 457.159 226.6 454.759 226.6C450.319 226.6 446.999 225.26 444.799 222.58C442.599 219.86 441.499 216.24 441.499 211.72V210.52C441.499 206.04 442.559 202.46 444.679 199.78C446.799 197.06 449.879 195.7 453.919 195.7C456.079 195.7 458.039 196.14 459.799 197.02C461.599 197.9 463.019 199.2 464.059 200.92C465.139 202.64 465.679 204.78 465.679 207.34C465.679 208.54 465.559 209.8 465.319 211.12H446.899V212.92C446.899 217.12 447.539 220.14 448.819 221.98C450.139 223.78 452.259 224.68 455.179 224.68C457.019 224.68 458.539 224.2 459.739 223.24C460.979 222.28 461.799 220.62 462.199 218.26L465.379 219.16ZM453.919 197.62C451.559 197.62 449.799 198.52 448.639 200.32C447.479 202.12 446.899 205.08 446.899 209.2H460.399V209.02C460.479 208.5 460.539 208 460.579 207.52C460.619 207 460.639 206.54 460.639 206.14C460.639 203.14 460.019 200.98 458.779 199.66C457.539 198.3 455.919 197.62 453.919 197.62ZM484.973 229C484.093 231.44 483.133 233.42 482.093 234.94C481.053 236.5 479.813 237.62 478.373 238.3C476.933 239.02 475.133 239.38 472.973 239.38V234.58C475.853 234.58 478.033 234.12 479.513 233.2C480.993 232.32 482.173 230.66 483.053 228.22L483.833 226H482.093L473.273 200.8C472.873 199.64 472.573 198.96 472.373 198.76C472.173 198.52 471.753 198.36 471.113 198.28L468.053 197.92V196.3H481.733V197.92L478.673 198.28C478.113 198.32 477.793 198.46 477.713 198.7C477.633 198.94 477.793 199.64 478.193 200.8L485.393 221.56L492.653 200.74C493.013 199.58 493.153 198.9 493.073 198.7C493.033 198.5 492.713 198.36 492.113 198.28L488.993 197.92V196.3H499.973V197.92L496.913 198.28C496.313 198.36 495.913 198.5 495.713 198.7C495.513 198.9 495.213 199.58 494.813 200.74L484.973 229ZM500.298 183.22V181.6H509.838V200.62C510.998 198.9 512.318 197.66 513.798 196.9C515.278 196.1 516.878 195.7 518.598 195.7C522.038 195.7 524.698 197 526.578 199.6C528.498 202.2 529.458 205.84 529.458 210.52V211.72C529.458 216.28 528.358 219.9 526.158 222.58C523.998 225.26 520.958 226.6 517.038 226.6C513.918 226.6 511.358 225.58 509.358 223.54C508.798 223.86 508.278 224.26 507.798 224.74C507.318 225.22 506.838 225.74 506.358 226.3H504.918V186.46C504.918 185.06 504.858 184.24 504.738 184C504.618 183.76 504.238 183.6 503.598 183.52L500.298 183.22ZM517.818 197.86C516.578 197.86 515.278 198.26 513.918 199.06C512.598 199.86 511.238 201.48 509.838 203.92V221.08C511.558 223.44 513.838 224.62 516.678 224.62C519.278 224.62 521.158 223.64 522.318 221.68C523.478 219.68 524.058 216.96 524.058 213.52V208.72C524.058 204.96 523.518 202.22 522.438 200.5C521.358 198.74 519.818 197.86 517.818 197.86ZM562.533 210.52V211.72C562.533 216.24 561.393 219.86 559.113 222.58C556.873 225.26 553.673 226.6 549.513 226.6C545.393 226.6 542.193 225.26 539.913 222.58C537.673 219.86 536.553 216.24 536.553 211.72V210.52C536.553 206.04 537.673 202.46 539.913 199.78C542.153 197.06 545.353 195.7 549.513 195.7C553.673 195.7 556.873 197.06 559.113 199.78C561.393 202.46 562.533 206.04 562.533 210.52ZM557.133 209.32C557.133 205.16 556.473 202.18 555.153 200.38C553.873 198.54 551.993 197.62 549.513 197.62C547.073 197.62 545.193 198.54 543.873 200.38C542.593 202.18 541.953 205.16 541.953 209.32V212.92C541.953 217.12 542.593 220.14 543.873 221.98C545.193 223.78 547.073 224.68 549.513 224.68C551.993 224.68 553.873 223.78 555.153 221.98C556.473 220.14 557.133 217.12 557.133 212.92V209.32ZM592.451 226.42C589.331 226.42 587.491 224.98 586.931 222.1C585.531 223.7 583.991 224.86 582.311 225.58C580.631 226.26 578.971 226.6 577.331 226.6C574.531 226.6 572.471 225.82 571.151 224.26C569.831 222.7 569.171 220.82 569.171 218.62C569.171 216.26 569.971 214.4 571.571 213.04C573.211 211.64 576.031 210.94 580.031 210.94H586.811V206.08C586.811 202.88 586.251 200.68 585.131 199.48C584.051 198.24 582.571 197.62 580.691 197.62C579.491 197.62 578.411 197.86 577.451 198.34C576.491 198.82 575.791 199.7 575.351 200.98C574.951 202.22 574.911 204.04 575.231 206.44L570.491 205.72C570.291 203.84 570.531 202.16 571.211 200.68C571.931 199.16 573.091 197.96 574.691 197.08C576.331 196.16 578.371 195.7 580.811 195.7C583.731 195.7 585.971 196.2 587.531 197.2C589.091 198.16 590.171 199.42 590.771 200.98C591.411 202.54 591.731 204.24 591.731 206.08V219.58C591.731 221.62 591.951 222.9 592.391 223.42C592.871 223.94 593.391 224.2 593.951 224.2C594.311 224.2 594.691 224.12 595.091 223.96C595.491 223.76 595.931 223.46 596.411 223.06L597.491 224.56C596.891 225.08 596.171 225.52 595.331 225.88C594.531 226.24 593.571 226.42 592.451 226.42ZM579.011 224.08C580.131 224.08 581.331 223.78 582.611 223.18C583.931 222.54 585.331 221.28 586.811 219.4V212.86H580.691C578.451 212.86 576.811 213.32 575.771 214.24C574.771 215.12 574.271 216.5 574.271 218.38C574.271 220.18 574.651 221.58 575.411 222.58C576.211 223.58 577.411 224.08 579.011 224.08ZM599.534 197.92V196.3H608.774V201.1C610.174 199.22 611.574 197.86 612.974 197.02C614.414 196.14 615.874 195.7 617.354 195.7C618.634 195.7 619.834 196.08 620.954 196.84C622.074 197.6 623.014 198.82 623.774 200.5L619.874 202.84C619.274 201.4 618.594 200.4 617.834 199.84C617.074 199.28 616.234 199 615.314 199C614.314 199 613.314 199.32 612.314 199.96C611.354 200.6 610.274 201.8 609.074 203.56V221.14C609.074 222.54 609.134 223.38 609.254 223.66C609.374 223.9 609.754 224.04 610.394 224.08L614.894 224.44V226H599.534V224.44L602.834 224.08C603.474 224 603.854 223.84 603.974 223.6C604.094 223.36 604.154 222.54 604.154 221.14V201.16C604.154 199.76 604.094 198.94 603.974 198.7C603.854 198.46 603.474 198.3 602.834 198.22L599.534 197.92ZM655.852 224.5V226H646.612V221.26C645.372 223.1 643.992 224.46 642.472 225.34C640.992 226.18 639.332 226.6 637.492 226.6C634.052 226.6 631.372 225.32 629.452 222.76C627.572 220.16 626.632 216.5 626.632 211.78V210.58C626.632 206.06 627.732 202.46 629.932 199.78C632.172 197.06 635.232 195.7 639.112 195.7C641.952 195.7 644.352 196.58 646.312 198.34V186.46C646.312 185.06 646.252 184.24 646.132 184C646.012 183.76 645.632 183.6 644.992 183.52L641.692 183.22V181.6H651.232V221.14C651.232 222.54 651.292 223.36 651.412 223.6C651.532 223.84 651.912 224 652.552 224.08L655.852 224.5ZM632.032 213.58C632.032 217.34 632.572 220.1 633.652 221.86C634.772 223.62 636.312 224.5 638.272 224.5C639.552 224.5 640.872 224.1 642.232 223.3C643.592 222.5 644.952 220.88 646.312 218.44V201.28C644.552 198.92 642.252 197.74 639.412 197.74C636.852 197.74 634.972 198.72 633.772 200.68C632.612 202.64 632.032 205.34 632.032 208.78V213.58ZM665.637 214.96H663.777C663.777 212.12 663.717 209.66 663.597 207.58C663.517 205.5 663.397 203.62 663.237 201.94C663.077 200.26 662.917 198.6 662.757 196.96C662.597 195.32 662.457 193.58 662.337 191.74C662.257 189.86 662.217 187.68 662.217 185.2H667.137C667.137 187.68 667.077 189.86 666.957 191.74C666.877 193.58 666.757 195.32 666.597 196.96C666.477 198.6 666.337 200.26 666.177 201.94C666.017 203.62 665.877 205.5 665.757 207.58C665.677 209.66 665.637 212.12 665.637 214.96ZM664.617 226.6C663.617 226.6 662.797 226.28 662.157 225.64C661.557 225 661.257 224.18 661.257 223.18C661.257 222.18 661.557 221.38 662.157 220.78C662.797 220.14 663.617 219.82 664.617 219.82C665.657 219.82 666.497 220.14 667.137 220.78C667.777 221.38 668.097 222.18 668.097 223.18C668.097 224.18 667.777 225 667.137 225.64C666.497 226.28 665.657 226.6 664.617 226.6Z" fill="#F5F5F5"/>
<circle cx="496" cy="9" r="4" fill="#F5F5F5" fill-opacity="0.3"/>
<circle cx="509" cy="9" r="4" fill="#F5F5F5" fill-opacity="0.3"/>
<circle cx="522" cy="9" r="4" fill="#F5F5F5" fill-opacity="0.5"/>
<circle cx="535" cy="9" r="4" fill="#F5F5F5" fill-opacity="0.5"/>
<circle cx="548" cy="9" r="4" fill="#F5F5F5" fill-opacity="0.5"/>
<circle cx="561" cy="9" r="4" fill="#F5F5F5" fill-opacity="0.5"/>
<circle cx="574" cy="9" r="4" fill="#F5F5F5" fill-opacity="0.7"/>
<circle cx="587" cy="9" r="4" fill="#F5F5F5" fill-opacity="0.7"/>
<circle cx="600" cy="9" r="4" fill="#F5F5F5" fill-opacity="0.5"/>
<circle cx="613" cy="9" r="4" fill="#F5F5F5" fill-opacity="0.5"/>
<circle cx="626" cy="9" r="4" fill="#F5F5F5" fill-opacity="0.5"/>
<circle cx="639" cy="9" r="4" fill="#F5F5F5" fill-opacity="0.5"/>
<circle cx="652" cy="9" r="4" fill="#F5F5F5" fill-opacity="0.3"/>
<circle cx="665" cy="9" r="4" fill="#F5F5F5" fill-opacity="0.3"/>
<circle cx="483" cy="22" r="4" fill="#F5F5F5" fill-opacity="0.1"/>
<circle cx="496" cy="22" r="4" fill="#F5F5F5" fill-opacity="0.3"/>
<circle cx="509" cy="22" r="4" fill="#F5F5F5" fill-opacity="0.5"/>
<circle cx="522" cy="22" r="4" fill="#F5F5F5" fill-opacity="0.5"/>
<circle cx="535" cy="22" r="4" fill="#F5F5F5" fill-opacity="0.5"/>
<circle cx="548" cy="22" r="4" fill="#F5F5F5" fill-opacity="0.5"/>
<circle cx="561" cy="22" r="4" fill="#F5F5F5" fill-opacity="0.5"/>
<circle cx="574" cy="22" r="4" fill="#F5F5F5" fill-opacity="0.7"/>
<circle cx="587" cy="22" r="4" fill="#F5F5F5" fill-opacity="0.7"/>
<circle cx="600" cy="22" r="4" fill="#F5F5F5" fill-opacity="0.5"/>
<circle cx="613" cy="22" r="4" fill="#F5F5F5" fill-opacity="0.5"/>
<circle cx="626" cy="22" r="4" fill="#F5F5F5" fill-opacity="0.5"/>
<circle cx="639" cy="22" r="4" fill="#F5F5F5" fill-opacity="0.5"/>
<circle cx="652" cy="22" r="4" fill="#F5F5F5" fill-opacity="0.5"/>
<circle cx="665" cy="22" r="4" fill="#F5F5F5" fill-opacity="0.3"/>
<circle cx="678" cy="22" r="4" fill="#F5F5F5" fill-opacity="0.1"/>
<circle cx="483" cy="35" r="4" fill="#F5F5F5" fill-opacity="0.1"/>
<circle cx="496" cy="35" r="4" fill="#F5F5F5" fill-opacity="0.3"/>
<circle cx="509" cy="35" r="4" fill="#F5F5F5" fill-opacity="0.5"/>
<circle cx="522" cy="35" r="4" fill="#F5F5F5" fill-opacity="0.5"/>
<circle cx="535" cy="35" r="4" fill="#F5F5F5" fill-opacity="0.5"/>
<circle cx="548" cy="35" r="4" fill="#F5F5F5" fill-opacity="0.5"/>
<circle cx="561" cy="35" r="4" fill="#F5F5F5" fill-opacity="0.5"/>
<circle cx="574" cy="35" r="4" fill="#F5F5F5" fill-opacity="0.7"/>
<circle cx="587" cy="35" r="4" fill="#F5F5F5" fill-opacity="0.7"/>
<circle cx="600" cy="35" r="4" fill="#F5F5F5" fill-opacity="0.5"/>
<circle cx="613" cy="35" r="4" fill="#F5F5F5" fill-opacity="0.5"/>
<circle cx="626" cy="35" r="4" fill="#F5F5F5" fill-opacity="0.5"/>
<circle cx="639" cy="35" r="4" fill="#F5F5F5" fill-opacity="0.5"/>
<circle cx="652" cy="35" r="4" fill="#F5F5F5" fill-opacity="0.5"/>
<circle cx="665" cy="35" r="4" fill="#F5F5F5" fill-opacity="0.3"/>
<circle cx="678" cy="35" r="4" fill="#F5F5F5" fill-opacity="0.1"/>
<circle cx="483" cy="48" r="4" fill="#F5F5F5" fill-opacity="0.1"/>
<circle cx="496" cy="48" r="4" fill="#F5F5F5" fill-opacity="0.3"/>
<circle cx="509" cy="48" r="4" fill="#F5F5F5" fill-opacity="0.5"/>
<circle cx="522" cy="48" r="4" fill="#F5F5F5" fill-opacity="0.5"/>
<circle cx="535" cy="48" r="4" fill="#F5F5F5" fill-opacity="0.5"/>
<circle cx="548" cy="48" r="4" fill="#F5F5F5" fill-opacity="0.5"/>
<circle cx="561" cy="48" r="4" fill="#F5F5F5" fill-opacity="0.7"/>
<circle cx="574" cy="48" r="4" fill="#F5F5F5" fill-opacity="0.8"/>
<circle cx="587" cy="48" r="4" fill="#F5F5F5" fill-opacity="0.8"/>
<circle cx="600" cy="48" r="4" fill="#F5F5F5" fill-opacity="0.7"/>
<circle cx="613" cy="48" r="4" fill="#F5F5F5" fill-opacity="0.5"/>
<circle cx="626" cy="48" r="4" fill="#F5F5F5" fill-opacity="0.5"/>
<circle cx="639" cy="48" r="4" fill="#F5F5F5" fill-opacity="0.5"/>
<circle cx="652" cy="48" r="4" fill="#F5F5F5" fill-opacity="0.5"/>
<circle cx="665" cy="48" r="4" fill="#F5F5F5" fill-opacity="0.3"/>
<circle cx="678" cy="48" r="4" fill="#F5F5F5" fill-opacity="0.1"/>
<circle cx="483" cy="61" r="4" fill="#F5F5F5" fill-opacity="0.1"/>
<circle cx="496" cy="61" r="4" fill="#F5F5F5" fill-opacity="0.3"/>
<circle cx="509" cy="61" r="4" fill="#F5F5F5" fill-opacity="0.7"/>
<circle cx="522" cy="61" r="4" fill="#F5F5F5" fill-opacity="0.7"/>
<circle cx="535" cy="61" r="4" fill="#F5F5F5" fill-opacity="0.7"/>
<circle cx="548" cy="61" r="4" fill="#F5F5F5" fill-opacity="0.7"/>
<circle cx="561" cy="61" r="4" fill="#F5F5F5" fill-opacity="0.9"/>
<circle cx="574" cy="61" r="4" fill="#F5F5F5"/>
<circle cx="587" cy="61" r="4" fill="#F5F5F5"/>
<circle cx="600" cy="61" r="4" fill="#F5F5F5" fill-opacity="0.8"/>
<circle cx="613" cy="61" r="4" fill="#F5F5F5" fill-opacity="0.7"/>
<circle cx="626" cy="61" r="4" fill="#F5F5F5" fill-opacity="0.5"/>
<circle cx="639" cy="61" r="4" fill="#F5F5F5" fill-opacity="0.5"/>
<circle cx="652" cy="61" r="4" fill="#F5F5F5" fill-opacity="0.5"/>
<circle cx="665" cy="61" r="4" fill="#F5F5F5" fill-opacity="0.3"/>
<circle cx="678" cy="61" r="4" fill="#F5F5F5" fill-opacity="0.1"/>
<circle cx="483" cy="74" r="4" fill="#F5F5F5" fill-opacity="0.1"/>
<circle cx="496" cy="74" r="4" fill="#F5F5F5" fill-opacity="0.3"/>
<circle cx="509" cy="74" r="4" fill="#F5F5F5" fill-opacity="0.5"/>
<circle cx="522" cy="74" r="4" fill="#F5F5F5" fill-opacity="0.5"/>
<circle cx="535" cy="74" r="4" fill="#F5F5F5" fill-opacity="0.5"/>
<circle cx="548" cy="74" r="4" fill="#F5F5F5" fill-opacity="0.7"/>
<circle cx="561" cy="74" r="4" fill="#F5F5F5" fill-opacity="0.8"/>
<circle cx="574" cy="74" r="4" fill="#F5F5F5"/>
<circle cx="587" cy="74" r="4" fill="#F5F5F5"/>
<circle cx="600" cy="74" r="4" fill="#F5F5F5" fill-opacity="0.8"/>
<circle cx="613" cy="74" r="4" fill="#F5F5F5" fill-opacity="0.7"/>
<circle cx="626" cy="74" r="4" fill="#F5F5F5" fill-opacity="0.7"/>
<circle cx="639" cy="74" r="4" fill="#F5F5F5" fill-opacity="0.7"/>
<circle cx="652" cy="74" r="4" fill="#F5F5F5" fill-opacity="0.7"/>
<circle cx="665" cy="74" r="4" fill="#F5F5F5" fill-opacity="0.3"/>
<circle cx="678" cy="74" r="4" fill="#F5F5F5" fill-opacity="0.1"/>
<circle cx="483" cy="87" r="4" fill="#F5F5F5" fill-opacity="0.1"/>
<circle cx="496" cy="87" r="4" fill="#F5F5F5" fill-opacity="0.3"/>
<circle cx="509" cy="87" r="4" fill="#F5F5F5" fill-opacity="0.5"/>
<circle cx="522" cy="87" r="4" fill="#F5F5F5" fill-opacity="0.5"/>
<circle cx="535" cy="87" r="4" fill="#F5F5F5" fill-opacity="0.5"/>
<circle cx="548" cy="87" r="4" fill="#F5F5F5" fill-opacity="0.5"/>
<circle cx="561" cy="87" r="4" fill="#F5F5F5" fill-opacity="0.7"/>
<circle cx="574" cy="87" r="4" fill="#F5F5F5" fill-opacity="0.8"/>
<circle cx="587" cy="87" r="4" fill="#F5F5F5" fill-opacity="0.8"/>
<circle cx="600" cy="87" r="4" fill="#F5F5F5" fill-opacity="0.7"/>
<circle cx="613" cy="87" r="4" fill="#F5F5F5" fill-opacity="0.5"/>
<circle cx="626" cy="87" r="4" fill="#F5F5F5" fill-opacity="0.5"/>
<circle cx="639" cy="87" r="4" fill="#F5F5F5" fill-opacity="0.5"/>
<circle cx="652" cy="87" r="4" fill="#F5F5F5" fill-opacity="0.5"/>
<circle cx="665" cy="87" r="4" fill="#F5F5F5" fill-opacity="0.3"/>
<circle cx="678" cy="87" r="4" fill="#F5F5F5" fill-opacity="0.1"/>
<circle cx="483" cy="100" r="4" fill="#F5F5F5" fill-opacity="0.1"/>
<circle cx="496" cy="100" r="4" fill="#F5F5F5" fill-opacity="0.3"/>
<circle cx="509" cy="100" r="4" fill="#F5F5F5" fill-opacity="0.5"/>
<circle cx="522" cy="100" r="4" fill="#F5F5F5" fill-opacity="0.5"/>
<circle cx="535" cy="100" r="4" fill="#F5F5F5" fill-opacity="0.5"/>
<circle cx="548" cy="100" r="4" fill="#F5F5F5" fill-opacity="0.5"/>
<circle cx="561" cy="100" r="4" fill="#F5F5F5" fill-opacity="0.5"/>
<circle cx="574" cy="100" r="4" fill="#F5F5F5" fill-opacity="0.7"/>
<circle cx="587" cy="100" r="4" fill="#F5F5F5" fill-opacity="0.7"/>
<circle cx="600" cy="100" r="4" fill="#F5F5F5" fill-opacity="0.5"/>
<circle cx="613" cy="100" r="4" fill="#F5F5F5" fill-opacity="0.5"/>
<circle cx="626" cy="100" r="4" fill="#F5F5F5" fill-opacity="0.5"/>
<circle cx="639" cy="100" r="4" fill="#F5F5F5" fill-opacity="0.5"/>
<circle cx="652" cy="100" r="4" fill="#F5F5F5" fill-opacity="0.5"/>
<circle cx="665" cy="100" r="4" fill="#F5F5F5" fill-opacity="0.3"/>
<circle cx="678" cy="100" r="4" fill="#F5F5F5" fill-opacity="0.1"/>
<circle cx="483" cy="113" r="4" fill="#F5F5F5" fill-opacity="0.1"/>
<circle cx="496" cy="113" r="4" fill="#F5F5F5" fill-opacity="0.3"/>
<circle cx="509" cy="113" r="4" fill="#F5F5F5" fill-opacity="0.5"/>
<circle cx="522" cy="113" r="4" fill="#F5F5F5" fill-opacity="0.5"/>
<circle cx="535" cy="113" r="4" fill="#F5F5F5" fill-opacity="0.5"/>
<circle cx="548" cy="113" r="4" fill="#F5F5F5" fill-opacity="0.5"/>
<circle cx="561" cy="113" r="4" fill="#F5F5F5" fill-opacity="0.5"/>
<circle cx="574" cy="113" r="4" fill="#F5F5F5" fill-opacity="0.7"/>
<circle cx="587" cy="113" r="4" fill="#F5F5F5" fill-opacity="0.7"/>
<circle cx="600" cy="113" r="4" fill="#F5F5F5" fill-opacity="0.5"/>
<circle cx="613" cy="113" r="4" fill="#F5F5F5" fill-opacity="0.5"/>
<circle cx="626" cy="113" r="4" fill="#F5F5F5" fill-opacity="0.5"/>
<circle cx="639" cy="113" r="4" fill="#F5F5F5" fill-opacity="0.5"/>
<circle cx="652" cy="113" r="4" fill="#F5F5F5" fill-opacity="0.5"/>
<circle cx="665" cy="113" r="4" fill="#F5F5F5" fill-opacity="0.3"/>
<circle cx="678" cy="113" r="4" fill="#F5F5F5" fill-opacity="0.1"/>
<circle cx="496" cy="126" r="4" fill="#F5F5F5" fill-opacity="0.3"/>
<circle cx="509" cy="126" r="4" fill="#F5F5F5" fill-opacity="0.3"/>
<circle cx="522" cy="126" r="4" fill="#F5F5F5" fill-opacity="0.5"/>
<circle cx="535" cy="126" r="4" fill="#F5F5F5" fill-opacity="0.5"/>
<circle cx="548" cy="126" r="4" fill="#F5F5F5" fill-opacity="0.5"/>
<circle cx="561" cy="126" r="4" fill="#F5F5F5" fill-opacity="0.5"/>
<circle cx="574" cy="126" r="4" fill="#F5F5F5" fill-opacity="0.7"/>
<circle cx="587" cy="126" r="4" fill="#F5F5F5" fill-opacity="0.7"/>
<circle cx="600" cy="126" r="4" fill="#F5F5F5" fill-opacity="0.5"/>
<circle cx="613" cy="126" r="4" fill="#F5F5F5" fill-opacity="0.5"/>
<circle cx="626" cy="126" r="4" fill="#F5F5F5" fill-opacity="0.5"/>
<circle cx="639" cy="126" r="4" fill="#F5F5F5" fill-opacity="0.5"/>
<circle cx="652" cy="126" r="4" fill="#F5F5F5" fill-opacity="0.3"/>
<circle cx="665" cy="126" r="4" fill="#F5F5F5" fill-opacity="0.3"/>
<circle cx="496" cy="139" r="4" fill="#F5F5F5" fill-opacity="0.1"/>
<circle cx="509" cy="139" r="4" fill="#F5F5F5" fill-opacity="0.3"/>
<circle cx="522" cy="139" r="4" fill="#F5F5F5" fill-opacity="0.3"/>
<circle cx="535" cy="139" r="4" fill="#F5F5F5" fill-opacity="0.5"/>
<circle cx="548" cy="139" r="4" fill="#F5F5F5" fill-opacity="0.5"/>
<circle cx="561" cy="139" r="4" fill="#F5F5F5" fill-opacity="0.5"/>
<circle cx="574" cy="139" r="4" fill="#F5F5F5" fill-opacity="0.5"/>
<circle cx="587" cy="139" r="4" fill="#F5F5F5" fill-opacity="0.5"/>
<circle cx="600" cy="139" r="4" fill="#F5F5F5" fill-opacity="0.5"/>
<circle cx="613" cy="139" r="4" fill="#F5F5F5" fill-opacity="0.5"/>
<circle cx="626" cy="139" r="4" fill="#F5F5F5" fill-opacity="0.5"/>
<circle cx="639" cy="139" r="4" fill="#F5F5F5" fill-opacity="0.3"/>
<circle cx="652" cy="139" r="4" fill="#F5F5F5" fill-opacity="0.3"/>
<circle cx="665" cy="139" r="4" fill="#F5F5F5" fill-opacity="0.1"/>
<circle cx="509" cy="152" r="4" fill="#F5F5F5" fill-opacity="0.1"/>
<circle cx="522" cy="152" r="4" fill="#F5F5F5" fill-opacity="0.3"/>
<circle cx="535" cy="152" r="4" fill="#F5F5F5" fill-opacity="0.3"/>
<circle cx="548" cy="152" r="4" fill="#F5F5F5" fill-opacity="0.3"/>
<circle cx="561" cy="152" r="4" fill="#F5F5F5" fill-opacity="0.3"/>
<circle cx="574" cy="152" r="4" fill="#F5F5F5" fill-opacity="0.3"/>
<circle cx="587" cy="152" r="4" fill="#F5F5F5" fill-opacity="0.3"/>
<circle cx="600" cy="152" r="4" fill="#F5F5F5" fill-opacity="0.3"/>
<circle cx="613" cy="152" r="4" fill="#F5F5F5" fill-opacity="0.3"/>
<circle cx="626" cy="152" r="4" fill="#F5F5F5" fill-opacity="0.3"/>
<circle cx="639" cy="152" r="4" fill="#F5F5F5" fill-opacity="0.3"/>
<circle cx="652" cy="152" r="4" fill="#F5F5F5" fill-opacity="0.1"/>
<circle cx="535" cy="165" r="4" fill="#F5F5F5" fill-opacity="0.1"/>
<circle cx="548" cy="165" r="4" fill="#F5F5F5" fill-opacity="0.1"/>
<circle cx="561" cy="165" r="4" fill="#F5F5F5" fill-opacity="0.1"/>
<circle cx="574" cy="165" r="4" fill="#F5F5F5" fill-opacity="0.1"/>
<circle cx="587" cy="165" r="4" fill="#F5F5F5" fill-opacity="0.1"/>
<circle cx="600" cy="165" r="4" fill="#F5F5F5" fill-opacity="0.1"/>
<circle cx="613" cy="165" r="4" fill="#F5F5F5" fill-opacity="0.1"/>
<circle cx="626" cy="165" r="4" fill="#F5F5F5" fill-opacity="0.1"/>
</g>
<defs>
<linearGradient id="paint0_linear_152_45" x1="371" y1="23.2984" x2="371" y2="321" gradientUnits="userSpaceOnUse">
<stop stop-color="#F1ADFF"/>
<stop offset="1" stop-color="#1F1E1E" stop-opacity="0"/>
</linearGradient>
<clipPath id="clip0_152_45">
<rect width="742" height="321" rx="40" fill="white"/>
</clipPath>
</defs>
</svg>
